<mxfile host="65bd71144e">
    <diagram id="uxK4-Yki4DrVbVwzbOzG" name="Page-1">
        <mxGraphModel dx="2166" dy="661" grid="1" gridSize="10" guides="1" tooltips="1" connect="1" arrows="1" fold="1" page="1" pageScale="1" pageWidth="1100" pageHeight="850" math="0" shadow="0">
            <root>
                <mxCell id="0"/>
                <mxCell id="1" parent="0"/>
                <mxCell id="2" value="&lt;div&gt;Interface View&lt;/div&gt;Write off reasons Screen" style="shape=umlLifeline;perimeter=lifelinePerimeter;whiteSpace=wrap;html=1;container=1;collapsible=0;recursiveResize=0;outlineConnect=0;rounded=1;shadow=0;comic=0;labelBackgroundColor=none;strokeWidth=1;fontFamily=Verdana;fontSize=12;align=center;" vertex="1" parent="1">
                    <mxGeometry x="280" y="80" width="110" height="730" as="geometry"/>
                </mxCell>
                <mxCell id="3" value="" style="html=1;points=[];perimeter=orthogonalPerimeter;rounded=0;shadow=0;comic=0;labelBackgroundColor=none;strokeWidth=1;fontFamily=Verdana;fontSize=12;align=center;" vertex="1" parent="2">
                    <mxGeometry x="50" y="100" width="10" height="580" as="geometry"/>
                </mxCell>
                <mxCell id="4" style="edgeStyle=orthogonalEdgeStyle;rounded=0;orthogonalLoop=1;jettySize=auto;html=1;dashed=1;dashPattern=8 8;" edge="1" parent="2">
                    <mxGeometry relative="1" as="geometry">
                        <mxPoint x="-120" y="180" as="targetPoint"/>
                        <mxPoint x="192" y="180" as="sourcePoint"/>
                        <Array as="points">
                            <mxPoint x="192" y="180"/>
                            <mxPoint x="38" y="180"/>
                            <mxPoint x="38" y="181"/>
                            <mxPoint x="-80" y="181"/>
                            <mxPoint x="-80" y="180"/>
                        </Array>
                    </mxGeometry>
                </mxCell>
                <mxCell id="5" value="&lt;div&gt;Interface&lt;/div&gt;&lt;div&gt;Create&amp;nbsp;&lt;span style=&quot;background-color: initial;&quot;&gt;Write off reasons&lt;/span&gt;&lt;span style=&quot;background-color: initial;&quot;&gt;&amp;nbsp;Screen&lt;/span&gt;&lt;/div&gt;" style="shape=umlLifeline;perimeter=lifelinePerimeter;whiteSpace=wrap;html=1;container=1;collapsible=0;recursiveResize=0;outlineConnect=0;rounded=1;shadow=0;comic=0;labelBackgroundColor=none;strokeWidth=1;fontFamily=Verdana;fontSize=12;align=center;" vertex="1" parent="1">
                    <mxGeometry x="410" y="80" width="145" height="690" as="geometry"/>
                </mxCell>
                <mxCell id="6" value="" style="html=1;points=[];perimeter=orthogonalPerimeter;rounded=0;shadow=0;comic=0;labelBackgroundColor=none;strokeWidth=1;fontFamily=Verdana;fontSize=12;align=center;" vertex="1" parent="5">
                    <mxGeometry x="65" y="130" width="15" height="560" as="geometry"/>
                </mxCell>
                <mxCell id="7" style="edgeStyle=orthogonalEdgeStyle;rounded=0;orthogonalLoop=1;jettySize=auto;html=1;" edge="1" parent="5">
                    <mxGeometry relative="1" as="geometry">
                        <mxPoint x="86" y="289.52" as="sourcePoint"/>
                        <mxPoint x="212" y="289.52" as="targetPoint"/>
                        <Array as="points">
                            <mxPoint x="80" y="289.52"/>
                            <mxPoint x="212" y="289.52"/>
                        </Array>
                    </mxGeometry>
                </mxCell>
                <mxCell id="8" value="View Add Write off reasons&lt;span style=&quot;font-family: Verdana; text-align: center;&quot;&gt;&amp;nbsp;&lt;/span&gt;Screen" style="text;whiteSpace=wrap;html=1;" vertex="1" parent="5">
                    <mxGeometry x="-60" y="90" width="120" height="40" as="geometry"/>
                </mxCell>
                <mxCell id="9" value="System" style="shape=umlLifeline;perimeter=lifelinePerimeter;whiteSpace=wrap;html=1;container=1;collapsible=0;recursiveResize=0;outlineConnect=0;rounded=1;shadow=0;comic=0;labelBackgroundColor=none;strokeWidth=1;fontFamily=Verdana;fontSize=12;align=center;" vertex="1" parent="1">
                    <mxGeometry x="580" y="80" width="100" height="590" as="geometry"/>
                </mxCell>
                <mxCell id="10" value="&lt;div&gt;Controller&lt;/div&gt;&lt;div&gt;Write off reasons&lt;br&gt;&lt;/div&gt;" style="shape=umlLifeline;perimeter=lifelinePerimeter;whiteSpace=wrap;html=1;container=1;collapsible=0;recursiveResize=0;outlineConnect=0;rounded=1;shadow=0;comic=0;labelBackgroundColor=none;strokeWidth=1;fontFamily=Verdana;fontSize=12;align=center;" vertex="1" parent="1">
                    <mxGeometry x="720" y="80" width="100" height="780" as="geometry"/>
                </mxCell>
                <mxCell id="11" value="" style="html=1;points=[];perimeter=orthogonalPerimeter;rounded=0;shadow=0;comic=0;labelBackgroundColor=none;strokeWidth=1;fontFamily=Verdana;fontSize=12;align=center;" vertex="1" parent="10">
                    <mxGeometry x="45" y="470" width="10" height="300" as="geometry"/>
                </mxCell>
                <mxCell id="12" value="Entity&lt;br&gt;Write off reasons" style="shape=umlLifeline;perimeter=lifelinePerimeter;whiteSpace=wrap;html=1;container=1;collapsible=0;recursiveResize=0;outlineConnect=0;rounded=1;shadow=0;comic=0;labelBackgroundColor=none;strokeWidth=1;fontFamily=Verdana;fontSize=12;align=center;" vertex="1" parent="1">
                    <mxGeometry x="860" y="80" width="100" height="580" as="geometry"/>
                </mxCell>
                <mxCell id="13" value="" style="html=1;points=[];perimeter=orthogonalPerimeter;rounded=0;shadow=0;comic=0;labelBackgroundColor=none;strokeWidth=1;fontFamily=Verdana;fontSize=12;align=center;" vertex="1" parent="1">
                    <mxGeometry x="625" y="370" width="10" height="320" as="geometry"/>
                </mxCell>
                <mxCell id="14" value="" style="html=1;points=[];perimeter=orthogonalPerimeter;rounded=0;shadow=0;comic=0;labelBackgroundColor=none;strokeWidth=1;fontFamily=Verdana;fontSize=12;align=center;" vertex="1" parent="1">
                    <mxGeometry x="905" y="560" width="10" height="160" as="geometry"/>
                </mxCell>
                <mxCell id="15" value="Click &quot;Add&quot; button" style="html=1;verticalAlign=bottom;endArrow=block;entryX=0;entryY=0;labelBackgroundColor=none;fontFamily=Verdana;fontSize=12;edgeStyle=elbowEdgeStyle;elbow=vertical;" edge="1" parent="1" target="3">
                    <mxGeometry relative="1" as="geometry">
                        <mxPoint x="155" y="180" as="sourcePoint"/>
                    </mxGeometry>
                </mxCell>
                <mxCell id="16" value="" style="html=1;verticalAlign=bottom;endArrow=block;entryX=0;entryY=0;labelBackgroundColor=none;fontFamily=Verdana;fontSize=12;edgeStyle=elbowEdgeStyle;elbow=vertical;" edge="1" parent="1" source="2" target="6">
                    <mxGeometry relative="1" as="geometry">
                        <mxPoint x="370" y="210" as="sourcePoint"/>
                        <Array as="points">
                            <mxPoint x="410" y="210"/>
                        </Array>
                    </mxGeometry>
                </mxCell>
                <mxCell id="17" style="rounded=0;orthogonalLoop=1;jettySize=auto;html=1;exitX=0.5;exitY=1;exitDx=0;exitDy=0;dashed=1;shape=link;strokeWidth=1;strokeColor=none;" edge="1" parent="1" source="18">
                    <mxGeometry relative="1" as="geometry">
                        <mxPoint x="130" y="660" as="targetPoint"/>
                    </mxGeometry>
                </mxCell>
                <mxCell id="18" value="" style="shape=actor;whiteSpace=wrap;html=1;" vertex="1" parent="1">
                    <mxGeometry x="130" y="80" width="40" height="60" as="geometry"/>
                </mxCell>
                <mxCell id="19" value="&lt;div&gt;&amp;lt;&amp;lt;PBA&amp;gt;&amp;gt;&lt;/div&gt;&lt;div&gt;Admin&lt;/div&gt;" style="text;html=1;align=center;verticalAlign=middle;resizable=0;points=[];autosize=1;strokeColor=none;fillColor=none;" vertex="1" parent="1">
                    <mxGeometry x="45" y="105" width="70" height="40" as="geometry"/>
                </mxCell>
                <mxCell id="20" value="" style="endArrow=none;dashed=1;html=1;dashPattern=1 3;strokeWidth=2;rounded=0;entryX=0.5;entryY=1;entryDx=0;entryDy=0;" edge="1" parent="1" source="22" target="18">
                    <mxGeometry width="50" height="50" relative="1" as="geometry">
                        <mxPoint x="150" y="660" as="sourcePoint"/>
                        <mxPoint x="570" y="270" as="targetPoint"/>
                    </mxGeometry>
                </mxCell>
                <mxCell id="21" value="" style="endArrow=none;dashed=1;html=1;dashPattern=1 3;strokeWidth=2;rounded=0;entryX=0.5;entryY=1;entryDx=0;entryDy=0;" edge="1" parent="1" target="22">
                    <mxGeometry width="50" height="50" relative="1" as="geometry">
                        <mxPoint x="150" y="660" as="sourcePoint"/>
                        <mxPoint x="150" y="140" as="targetPoint"/>
                    </mxGeometry>
                </mxCell>
                <mxCell id="22" value="" style="html=1;points=[];perimeter=orthogonalPerimeter;rounded=0;shadow=0;comic=0;labelBackgroundColor=none;strokeWidth=1;fontFamily=Verdana;fontSize=12;align=center;" vertex="1" parent="1">
                    <mxGeometry x="142.5" y="170" width="15" height="590" as="geometry"/>
                </mxCell>
                <mxCell id="23" style="edgeStyle=orthogonalEdgeStyle;rounded=0;orthogonalLoop=1;jettySize=auto;html=1;" edge="1" parent="1">
                    <mxGeometry relative="1" as="geometry">
                        <mxPoint x="763.5" y="550.025641025641" as="targetPoint"/>
                        <Array as="points">
                            <mxPoint x="704" y="550"/>
                            <mxPoint x="704" y="550"/>
                        </Array>
                        <mxPoint x="639" y="550" as="sourcePoint"/>
                    </mxGeometry>
                </mxCell>
                <mxCell id="24" value="Validate Write off&amp;nbsp;&lt;div&gt;reasons&lt;span style=&quot;font-family: Verdana;&quot;&gt;&amp;nbsp;&lt;/span&gt;details&lt;/div&gt;" style="text;html=1;align=center;verticalAlign=middle;resizable=0;points=[];autosize=1;strokeColor=none;fillColor=none;" vertex="1" parent="1">
                    <mxGeometry x="640" y="515" width="120" height="40" as="geometry"/>
                </mxCell>
                <mxCell id="25" value="Alt" style="shape=umlFrame;whiteSpace=wrap;html=1;pointerEvents=0;" vertex="1" parent="1">
                    <mxGeometry x="-70" y="520" width="1050" height="340" as="geometry"/>
                </mxCell>
                <mxCell id="26" value="Validation success" style="text;html=1;align=center;verticalAlign=middle;resizable=0;points=[];autosize=1;strokeColor=none;fillColor=none;" vertex="1" parent="1">
                    <mxGeometry x="-5" y="525" width="120" height="30" as="geometry"/>
                </mxCell>
                <mxCell id="27" value="Create new record" style="text;html=1;align=center;verticalAlign=middle;resizable=0;points=[];autosize=1;strokeColor=none;fillColor=none;" vertex="1" parent="1">
                    <mxGeometry x="780" y="540" width="120" height="30" as="geometry"/>
                </mxCell>
                <mxCell id="28" style="edgeStyle=orthogonalEdgeStyle;rounded=0;orthogonalLoop=1;jettySize=auto;html=1;dashed=1;dashPattern=8 8;" edge="1" parent="1">
                    <mxGeometry relative="1" as="geometry">
                        <mxPoint x="490" y="629.93" as="targetPoint"/>
                        <Array as="points">
                            <mxPoint x="490" y="629.93"/>
                        </Array>
                        <mxPoint x="630" y="630" as="sourcePoint"/>
                    </mxGeometry>
                </mxCell>
                <mxCell id="29" value="success message &lt;br&gt;details " style="text;html=1;align=center;verticalAlign=middle;resizable=0;points=[];autosize=1;strokeColor=none;fillColor=none;" vertex="1" parent="1">
                    <mxGeometry x="495" y="589.93" width="120" height="40" as="geometry"/>
                </mxCell>
                <mxCell id="30" value="" style="endArrow=classic;html=1;rounded=0;dashed=1;dashPattern=8 8;" edge="1" parent="1">
                    <mxGeometry width="50" height="50" relative="1" as="geometry">
                        <mxPoint x="769" y="614.77" as="sourcePoint"/>
                        <mxPoint x="634" y="614.7699999999999" as="targetPoint"/>
                    </mxGeometry>
                </mxCell>
                <mxCell id="31" value="Updated Write off&amp;nbsp;&lt;div&gt;reasons&lt;span style=&quot;font-family: Verdana;&quot;&gt;&amp;nbsp;&lt;/span&gt;table&lt;/div&gt;" style="text;html=1;align=center;verticalAlign=middle;resizable=0;points=[];autosize=1;strokeColor=none;fillColor=none;" vertex="1" parent="1">
                    <mxGeometry x="640" y="575" width="120" height="40" as="geometry"/>
                </mxCell>
                <mxCell id="32" value="" style="endArrow=none;dashed=1;html=1;rounded=0;exitX=0.002;exitY=0.515;exitDx=0;exitDy=0;exitPerimeter=0;strokeWidth=2;" edge="1" parent="1">
                    <mxGeometry width="50" height="50" relative="1" as="geometry">
                        <mxPoint x="-67.90000000000009" y="699.9999999999999" as="sourcePoint"/>
                        <mxPoint x="980" y="704.5330275229359" as="targetPoint"/>
                    </mxGeometry>
                </mxCell>
                <mxCell id="33" value="Validation/Unsuccessful Fails" style="text;html=1;align=center;verticalAlign=middle;resizable=0;points=[];autosize=1;strokeColor=none;fillColor=none;" vertex="1" parent="1">
                    <mxGeometry x="-58.5" y="710" width="180" height="30" as="geometry"/>
                </mxCell>
                <mxCell id="34" value="" style="endArrow=classic;html=1;rounded=0;exitX=0;exitY=0.632;exitDx=0;exitDy=0;exitPerimeter=0;dashed=1;dashPattern=12 12;entryX=0.436;entryY=1.032;entryDx=0;entryDy=0;entryPerimeter=0;" edge="1" parent="1" source="11">
                    <mxGeometry width="50" height="50" relative="1" as="geometry">
                        <mxPoint x="520" y="550" as="sourcePoint"/>
                        <mxPoint x="494.1199999999999" y="740.96" as="targetPoint"/>
                    </mxGeometry>
                </mxCell>
                <mxCell id="35" value="" style="endArrow=classic;html=1;rounded=0;entryX=1.033;entryY=0.998;entryDx=0;entryDy=0;entryPerimeter=0;dashed=1;dashPattern=8 8;" edge="1" parent="1" source="6" target="22">
                    <mxGeometry width="50" height="50" relative="1" as="geometry">
                        <mxPoint x="775" y="756" as="sourcePoint"/>
                        <mxPoint x="345" y="756" as="targetPoint"/>
                    </mxGeometry>
                </mxCell>
                <mxCell id="36" value="&lt;font color=&quot;#ff0000&quot;&gt;ALT: Display&amp;nbsp;&lt;/font&gt;&lt;div&gt;&lt;font color=&quot;#ff0000&quot;&gt;validation/unsuccess message&amp;nbsp;&amp;nbsp;&lt;/font&gt;&lt;/div&gt;" style="text;html=1;align=center;verticalAlign=middle;resizable=0;points=[];autosize=1;strokeColor=none;fillColor=none;" vertex="1" parent="1">
                    <mxGeometry x="151.5" y="720" width="190" height="40" as="geometry"/>
                </mxCell>
                <mxCell id="37" value="" style="endArrow=classic;html=1;rounded=0;exitX=0.195;exitY=0.97;exitDx=0;exitDy=0;exitPerimeter=0;entryX=0.862;entryY=0.858;entryDx=0;entryDy=0;entryPerimeter=0;dashed=1;dashPattern=8 8;" edge="1" parent="1" source="13" target="3">
                    <mxGeometry width="50" height="50" relative="1" as="geometry">
                        <mxPoint x="560" y="450" as="sourcePoint"/>
                        <mxPoint x="610" y="400" as="targetPoint"/>
                    </mxGeometry>
                </mxCell>
                <mxCell id="38" value="Updated Table details" style="text;html=1;align=center;verticalAlign=middle;resizable=0;points=[];autosize=1;strokeColor=none;fillColor=none;" vertex="1" parent="1">
                    <mxGeometry x="342" y="648" width="140" height="30" as="geometry"/>
                </mxCell>
                <mxCell id="39" value="Alt" style="shape=umlFrame;whiteSpace=wrap;html=1;pointerEvents=0;" vertex="1" parent="1">
                    <mxGeometry x="-78.5" y="405" width="640" height="100" as="geometry"/>
                </mxCell>
                <mxCell id="40" value="alt: clicks &quot;cancel&quot; button" style="text;html=1;align=center;verticalAlign=middle;resizable=0;points=[];autosize=1;strokeColor=none;fillColor=none;" vertex="1" parent="1">
                    <mxGeometry x="-16" y="405" width="160" height="30" as="geometry"/>
                </mxCell>
                <mxCell id="41" style="edgeStyle=orthogonalEdgeStyle;rounded=0;orthogonalLoop=1;jettySize=auto;html=1;" edge="1" parent="1">
                    <mxGeometry relative="1" as="geometry">
                        <mxPoint x="476.5" y="435" as="targetPoint"/>
                        <Array as="points">
                            <mxPoint x="476.5" y="435"/>
                        </Array>
                        <mxPoint x="156.5" y="435" as="sourcePoint"/>
                    </mxGeometry>
                </mxCell>
                <mxCell id="42" value="&lt;font color=&quot;#ff0000&quot;&gt;ALT: Clicks cancel button&lt;/font&gt;" style="text;html=1;align=center;verticalAlign=middle;resizable=0;points=[];autosize=1;strokeColor=none;fillColor=none;" vertex="1" parent="1">
                    <mxGeometry x="161.5" y="405" width="160" height="30" as="geometry"/>
                </mxCell>
                <mxCell id="43" style="edgeStyle=orthogonalEdgeStyle;rounded=0;orthogonalLoop=1;jettySize=auto;html=1;dashed=1;dashPattern=8 8;entryX=0.996;entryY=0.557;entryDx=0;entryDy=0;entryPerimeter=0;" edge="1" parent="1">
                    <mxGeometry relative="1" as="geometry">
                        <mxPoint x="331.5" y="480" as="sourcePoint"/>
                        <mxPoint x="158.93999999999983" y="478.6300000000001" as="targetPoint"/>
                        <Array as="points">
                            <mxPoint x="255.5" y="480"/>
                            <mxPoint x="172.5" y="479"/>
                        </Array>
                    </mxGeometry>
                </mxCell>
                <mxCell id="44" value="Write off reasons&amp;nbsp;&lt;div&gt;details&lt;/div&gt;" style="text;html=1;align=center;verticalAlign=middle;resizable=0;points=[];autosize=1;strokeColor=none;fillColor=none;" vertex="1" parent="1">
                    <mxGeometry x="505" y="325" width="120" height="40" as="geometry"/>
                </mxCell>
                <mxCell id="45" value="&lt;div&gt;Interface&lt;/div&gt;&lt;div&gt;Write off reasons Screen&lt;br&gt;&lt;/div&gt;" style="shape=umlLifeline;perimeter=lifelinePerimeter;whiteSpace=wrap;html=1;container=1;collapsible=0;recursiveResize=0;outlineConnect=0;rounded=1;shadow=0;comic=0;labelBackgroundColor=none;strokeWidth=1;fontFamily=Verdana;fontSize=12;align=center;" vertex="1" parent="1">
                    <mxGeometry x="471.5" y="960" width="100" height="800" as="geometry"/>
                </mxCell>
                <mxCell id="46" value="" style="html=1;points=[];perimeter=orthogonalPerimeter;rounded=0;shadow=0;comic=0;labelBackgroundColor=none;strokeWidth=1;fontFamily=Verdana;fontSize=12;align=center;" vertex="1" parent="45">
                    <mxGeometry x="41" y="130" width="10" height="590" as="geometry"/>
                </mxCell>
                <mxCell id="47" value="System" style="shape=umlLifeline;perimeter=lifelinePerimeter;whiteSpace=wrap;html=1;container=1;collapsible=0;recursiveResize=0;outlineConnect=0;rounded=1;shadow=0;comic=0;labelBackgroundColor=none;strokeWidth=1;fontFamily=Verdana;fontSize=12;align=center;" vertex="1" parent="1">
                    <mxGeometry x="611.5" y="960" width="100" height="800" as="geometry"/>
                </mxCell>
                <mxCell id="48" value="" style="html=1;points=[];perimeter=orthogonalPerimeter;rounded=0;shadow=0;comic=0;labelBackgroundColor=none;strokeWidth=1;fontFamily=Verdana;fontSize=12;align=center;" vertex="1" parent="47">
                    <mxGeometry x="45" y="130" width="10" height="620" as="geometry"/>
                </mxCell>
                <mxCell id="49" value="&lt;div&gt;Controller&lt;/div&gt;&lt;div&gt;Write off reasons&lt;br&gt;&lt;/div&gt;" style="shape=umlLifeline;perimeter=lifelinePerimeter;whiteSpace=wrap;html=1;container=1;collapsible=0;recursiveResize=0;outlineConnect=0;rounded=1;shadow=0;comic=0;labelBackgroundColor=none;strokeWidth=1;fontFamily=Verdana;fontSize=12;align=center;" vertex="1" parent="1">
                    <mxGeometry x="745.5" y="960" width="100" height="400" as="geometry"/>
                </mxCell>
                <mxCell id="50" value="Entity&lt;br&gt;Write off reasons" style="shape=umlLifeline;perimeter=lifelinePerimeter;whiteSpace=wrap;html=1;container=1;collapsible=0;recursiveResize=0;outlineConnect=0;rounded=1;shadow=0;comic=0;labelBackgroundColor=none;strokeWidth=1;fontFamily=Verdana;fontSize=12;align=center;" vertex="1" parent="1">
                    <mxGeometry x="891.5" y="960" width="100" height="570" as="geometry"/>
                </mxCell>
                <mxCell id="51" value="" style="html=1;points=[];perimeter=orthogonalPerimeter;rounded=0;shadow=0;comic=0;labelBackgroundColor=none;strokeWidth=1;fontFamily=Verdana;fontSize=12;align=center;" vertex="1" parent="50">
                    <mxGeometry x="45" y="130" width="10" height="440" as="geometry"/>
                </mxCell>
                <mxCell id="52" style="rounded=0;orthogonalLoop=1;jettySize=auto;html=1;exitX=0.5;exitY=1;exitDx=0;exitDy=0;dashed=1;shape=link;strokeWidth=1;strokeColor=none;" edge="1" parent="1" source="53">
                    <mxGeometry relative="1" as="geometry">
                        <mxPoint x="161.5" y="1540" as="targetPoint"/>
                    </mxGeometry>
                </mxCell>
                <mxCell id="53" value="" style="shape=actor;whiteSpace=wrap;html=1;" vertex="1" parent="1">
                    <mxGeometry x="161.5" y="960" width="40" height="60" as="geometry"/>
                </mxCell>
                <mxCell id="54" value="&lt;div&gt;&amp;lt;&amp;lt;PBA&amp;gt;&amp;gt;&lt;/div&gt;&lt;div&gt;Admin&lt;/div&gt;" style="text;html=1;align=center;verticalAlign=middle;resizable=0;points=[];autosize=1;strokeColor=none;fillColor=none;" vertex="1" parent="1">
                    <mxGeometry x="76.5" y="985" width="70" height="40" as="geometry"/>
                </mxCell>
                <mxCell id="55" value="" style="endArrow=none;dashed=1;html=1;dashPattern=1 3;strokeWidth=2;rounded=0;entryX=0.5;entryY=1;entryDx=0;entryDy=0;" edge="1" parent="1" source="58" target="53">
                    <mxGeometry width="50" height="50" relative="1" as="geometry">
                        <mxPoint x="181.5" y="1540" as="sourcePoint"/>
                        <mxPoint x="601.5" y="1150" as="targetPoint"/>
                    </mxGeometry>
                </mxCell>
                <mxCell id="56" style="edgeStyle=orthogonalEdgeStyle;rounded=0;orthogonalLoop=1;jettySize=auto;html=1;" edge="1" parent="1" source="58">
                    <mxGeometry relative="1" as="geometry">
                        <Array as="points">
                            <mxPoint x="240" y="1100"/>
                            <mxPoint x="240" y="1100"/>
                        </Array>
                        <mxPoint x="510" y="1100" as="targetPoint"/>
                    </mxGeometry>
                </mxCell>
                <mxCell id="57" value="Clicked &quot;Write off reasons&quot; button" style="edgeLabel;html=1;align=center;verticalAlign=middle;resizable=0;points=[];" vertex="1" connectable="0" parent="56">
                    <mxGeometry x="-0.2316" relative="1" as="geometry">
                        <mxPoint x="29" y="-20" as="offset"/>
                    </mxGeometry>
                </mxCell>
                <mxCell id="58" value="" style="html=1;points=[];perimeter=orthogonalPerimeter;rounded=0;shadow=0;comic=0;labelBackgroundColor=none;strokeWidth=1;fontFamily=Verdana;fontSize=12;align=center;" vertex="1" parent="1">
                    <mxGeometry x="174" y="1050" width="15" height="710" as="geometry"/>
                </mxCell>
                <mxCell id="59" value="ALT" style="shape=umlFrame;whiteSpace=wrap;html=1;pointerEvents=0;" vertex="1" parent="1">
                    <mxGeometry x="-85" y="1434.35" width="1065" height="100" as="geometry"/>
                </mxCell>
                <mxCell id="60" value="Unable to retrieve&amp;nbsp;&lt;div&gt;&lt;span style=&quot;font-family: Verdana; text-wrap: wrap;&quot;&gt;Write off reasons&amp;nbsp;&lt;/span&gt;details&lt;/div&gt;" style="text;html=1;align=center;verticalAlign=middle;resizable=0;points=[];autosize=1;strokeColor=none;fillColor=none;" vertex="1" parent="1">
                    <mxGeometry x="-7.5" y="1435.35" width="140" height="40" as="geometry"/>
                </mxCell>
                <mxCell id="61" value="&lt;font color=&quot;#ff0000&quot;&gt;ALT: No details retrieved&lt;/font&gt;" style="text;html=1;align=center;verticalAlign=middle;resizable=0;points=[];autosize=1;strokeColor=none;fillColor=none;" vertex="1" parent="1">
                    <mxGeometry x="793" y="1434.35" width="150" height="30" as="geometry"/>
                </mxCell>
                <mxCell id="62" value="" style="endArrow=classic;html=1;rounded=0;exitX=1.4;exitY=0.187;exitDx=0;exitDy=0;exitPerimeter=0;entryX=0.01;entryY=0.551;entryDx=0;entryDy=0;entryPerimeter=0;" edge="1" parent="1" target="86">
                    <mxGeometry width="50" height="50" relative="1" as="geometry">
                        <mxPoint x="666.5" y="1330.6570000000002" as="sourcePoint"/>
                        <mxPoint x="937.0000000000005" y="1330.6570000000002" as="targetPoint"/>
                    </mxGeometry>
                </mxCell>
                <mxCell id="63" value="&lt;font style=&quot;font-size: 11px;&quot;&gt;Retrieve&amp;nbsp;&lt;span style=&quot;font-family: Verdana; text-align: center;&quot;&gt;Write off reasons&amp;nbsp;&lt;/span&gt;details&lt;/font&gt;" style="text;whiteSpace=wrap;html=1;" vertex="1" parent="1">
                    <mxGeometry x="674.87" y="1290" width="130" height="40" as="geometry"/>
                </mxCell>
                <mxCell id="64" value="" style="endArrow=none;html=1;rounded=0;startArrow=classic;startFill=1;endFill=0;dashed=1;exitX=1.456;exitY=0.849;exitDx=0;exitDy=0;exitPerimeter=0;" edge="1" parent="1" source="86">
                    <mxGeometry width="50" height="50" relative="1" as="geometry">
                        <mxPoint x="790" y="1464" as="sourcePoint"/>
                        <mxPoint x="932" y="1464.35" as="targetPoint"/>
                    </mxGeometry>
                </mxCell>
                <mxCell id="65" value="" style="endArrow=none;html=1;rounded=0;endFill=0;startArrow=classic;startFill=1;dashed=1;" edge="1" parent="1">
                    <mxGeometry width="50" height="50" relative="1" as="geometry">
                        <mxPoint x="522" y="1500.35" as="sourcePoint"/>
                        <mxPoint x="657" y="1500.35" as="targetPoint"/>
                    </mxGeometry>
                </mxCell>
                <mxCell id="66" value="&lt;font color=&quot;#ff0000&quot;&gt;ALT: No matches found&lt;/font&gt;" style="text;html=1;align=center;verticalAlign=middle;resizable=0;points=[];autosize=1;strokeColor=none;fillColor=none;" vertex="1" parent="1">
                    <mxGeometry x="515" y="1469.35" width="150" height="30" as="geometry"/>
                </mxCell>
                <mxCell id="67" style="edgeStyle=orthogonalEdgeStyle;rounded=0;orthogonalLoop=1;jettySize=auto;html=1;endArrow=none;endFill=0;startArrow=classic;startFill=1;dashed=1;" edge="1" parent="1">
                    <mxGeometry relative="1" as="geometry">
                        <mxPoint x="509.5" y="1514.35" as="targetPoint"/>
                        <Array as="points">
                            <mxPoint x="509.5" y="1514.35"/>
                        </Array>
                        <mxPoint x="189.5" y="1514.35" as="sourcePoint"/>
                    </mxGeometry>
                </mxCell>
                <mxCell id="68" value="&lt;font color=&quot;#ff0000&quot;&gt;ALT: Display no details found info&lt;/font&gt;" style="text;html=1;align=center;verticalAlign=middle;resizable=0;points=[];autosize=1;strokeColor=none;fillColor=none;" vertex="1" parent="1">
                    <mxGeometry x="248.5" y="1484.35" width="200" height="30" as="geometry"/>
                </mxCell>
                <mxCell id="69" value="ALT" style="shape=umlFrame;whiteSpace=wrap;html=1;pointerEvents=0;" vertex="1" parent="1">
                    <mxGeometry x="-88" y="1560" width="913" height="170" as="geometry"/>
                </mxCell>
                <mxCell id="70" value="Input search entry" style="text;whiteSpace=wrap;html=1;" vertex="1" parent="1">
                    <mxGeometry x="286" y="1250" width="200" height="40" as="geometry"/>
                </mxCell>
                <mxCell id="71" style="edgeStyle=orthogonalEdgeStyle;rounded=0;orthogonalLoop=1;jettySize=auto;html=1;" edge="1" parent="1">
                    <mxGeometry relative="1" as="geometry">
                        <mxPoint x="510" y="1279.7" as="targetPoint"/>
                        <Array as="points">
                            <mxPoint x="510" y="1279.7"/>
                        </Array>
                        <mxPoint x="190" y="1279.7" as="sourcePoint"/>
                    </mxGeometry>
                </mxCell>
                <mxCell id="72" value="" style="endArrow=classic;html=1;rounded=0;" edge="1" parent="1">
                    <mxGeometry width="50" height="50" relative="1" as="geometry">
                        <mxPoint x="670" y="1590" as="sourcePoint"/>
                        <mxPoint x="669.6304347826085" y="1628" as="targetPoint"/>
                        <Array as="points">
                            <mxPoint x="700" y="1590"/>
                            <mxPoint x="700" y="1628"/>
                        </Array>
                    </mxGeometry>
                </mxCell>
                <mxCell id="73" value="&lt;font color=&quot;#ff0000&quot;&gt;Extend to use case 7.9 Update&amp;nbsp;&lt;span style=&quot;font-family: Verdana; text-align: center;&quot;&gt;Write off reasons&lt;/span&gt;&lt;/font&gt;" style="text;whiteSpace=wrap;html=1;" vertex="1" parent="1">
                    <mxGeometry x="713.87" y="1580" width="85" height="40" as="geometry"/>
                </mxCell>
                <mxCell id="74" value="" style="endArrow=classic;html=1;rounded=0;" edge="1" parent="1">
                    <mxGeometry width="50" height="50" relative="1" as="geometry">
                        <mxPoint x="670" y="1660" as="sourcePoint"/>
                        <mxPoint x="669.6304347826085" y="1698" as="targetPoint"/>
                        <Array as="points">
                            <mxPoint x="700" y="1660"/>
                            <mxPoint x="700" y="1698"/>
                        </Array>
                    </mxGeometry>
                </mxCell>
                <mxCell id="75" value="&lt;font color=&quot;#ff0000&quot;&gt;Extend to use case 7.10 Delete&amp;nbsp;&lt;span style=&quot;font-family: Verdana; text-align: center;&quot;&gt;Write off reasons&lt;/span&gt;&lt;/font&gt;" style="text;whiteSpace=wrap;html=1;" vertex="1" parent="1">
                    <mxGeometry x="713.87" y="1650" width="85" height="40" as="geometry"/>
                </mxCell>
                <mxCell id="76" style="edgeStyle=orthogonalEdgeStyle;rounded=0;orthogonalLoop=1;jettySize=auto;html=1;" edge="1" parent="1">
                    <mxGeometry relative="1" as="geometry">
                        <mxPoint x="510" y="1600" as="targetPoint"/>
                        <Array as="points">
                            <mxPoint x="510" y="1600"/>
                        </Array>
                        <mxPoint x="190" y="1600" as="sourcePoint"/>
                    </mxGeometry>
                </mxCell>
                <mxCell id="77" value="&lt;font color=&quot;#ff0000&quot;&gt;ALT: Click &quot;Edit&quot; button&lt;/font&gt;" style="text;html=1;align=center;verticalAlign=middle;resizable=0;points=[];autosize=1;strokeColor=none;fillColor=none;fontColor=#000000;" vertex="1" parent="1">
                    <mxGeometry x="190" y="1570" width="150" height="30" as="geometry"/>
                </mxCell>
                <mxCell id="78" style="edgeStyle=orthogonalEdgeStyle;rounded=0;orthogonalLoop=1;jettySize=auto;html=1;" edge="1" parent="1">
                    <mxGeometry relative="1" as="geometry">
                        <mxPoint x="509" y="1660" as="targetPoint"/>
                        <Array as="points">
                            <mxPoint x="509" y="1660"/>
                        </Array>
                        <mxPoint x="189" y="1660" as="sourcePoint"/>
                    </mxGeometry>
                </mxCell>
                <mxCell id="79" value="&lt;font color=&quot;#ff0000&quot;&gt;ALT: Click &quot;Delete&quot; button&lt;/font&gt;" style="text;html=1;align=center;verticalAlign=middle;resizable=0;points=[];autosize=1;strokeColor=none;fillColor=none;" vertex="1" parent="1">
                    <mxGeometry x="188" y="1620" width="160" height="30" as="geometry"/>
                </mxCell>
                <mxCell id="80" value="Admin wants to Edit/delete &lt;br&gt;a&amp;nbsp;&lt;span style=&quot;font-family: Verdana; text-wrap: wrap;&quot;&gt;Write off reasons&lt;/span&gt;" style="text;html=1;align=center;verticalAlign=middle;resizable=0;points=[];autosize=1;strokeColor=none;fillColor=none;" vertex="1" parent="1">
                    <mxGeometry x="-23.5" y="1560" width="170" height="40" as="geometry"/>
                </mxCell>
                <mxCell id="81" style="edgeStyle=orthogonalEdgeStyle;rounded=0;orthogonalLoop=1;jettySize=auto;html=1;" edge="1" parent="1">
                    <mxGeometry relative="1" as="geometry">
                        <Array as="points">
                            <mxPoint x="886" y="1160"/>
                            <mxPoint x="886" y="1160"/>
                        </Array>
                        <mxPoint x="794.8699999999999" y="1160" as="sourcePoint"/>
                        <mxPoint x="937.0000000000005" y="1160" as="targetPoint"/>
                    </mxGeometry>
                </mxCell>
                <mxCell id="82" value="Read Write off&amp;nbsp;&lt;div&gt;reasons&amp;nbsp;Records&lt;/div&gt;" style="edgeLabel;html=1;align=center;verticalAlign=middle;resizable=0;points=[];" vertex="1" connectable="0" parent="81">
                    <mxGeometry x="0.0347" relative="1" as="geometry">
                        <mxPoint x="-4" y="-14" as="offset"/>
                    </mxGeometry>
                </mxCell>
                <mxCell id="83" style="edgeStyle=orthogonalEdgeStyle;rounded=0;orthogonalLoop=1;jettySize=auto;html=1;dashed=1;" edge="1" parent="1" source="86" target="48">
                    <mxGeometry relative="1" as="geometry">
                        <Array as="points">
                            <mxPoint x="760" y="1200"/>
                            <mxPoint x="760" y="1200"/>
                        </Array>
                    </mxGeometry>
                </mxCell>
                <mxCell id="84" value="Retrieved Write off&amp;nbsp;&lt;div&gt;reasons&amp;nbsp;info&lt;/div&gt;" style="edgeLabel;html=1;align=center;verticalAlign=middle;resizable=0;points=[];" vertex="1" connectable="0" parent="83">
                    <mxGeometry x="-0.0351" relative="1" as="geometry">
                        <mxPoint y="-21" as="offset"/>
                    </mxGeometry>
                </mxCell>
                <mxCell id="85" style="edgeStyle=orthogonalEdgeStyle;rounded=0;orthogonalLoop=1;jettySize=auto;html=1;" edge="1" parent="1">
                    <mxGeometry relative="1" as="geometry">
                        <Array as="points">
                            <mxPoint x="876" y="1350"/>
                            <mxPoint x="876" y="1350"/>
                        </Array>
                        <mxPoint x="800" y="1350" as="sourcePoint"/>
                        <mxPoint x="936" y="1350" as="targetPoint"/>
                    </mxGeometry>
                </mxCell>
                <mxCell id="86" value="" style="html=1;points=[];perimeter=orthogonalPerimeter;rounded=0;shadow=0;comic=0;labelBackgroundColor=none;strokeWidth=1;fontFamily=Verdana;fontSize=12;align=center;" vertex="1" parent="1">
                    <mxGeometry x="788.87" y="1090" width="10" height="440" as="geometry"/>
                </mxCell>
                <mxCell id="87" value="" style="edgeStyle=orthogonalEdgeStyle;rounded=0;orthogonalLoop=1;jettySize=auto;html=1;exitX=0.067;exitY=0.8;exitDx=0;exitDy=0;exitPerimeter=0;dashed=1;dashPattern=8 8;entryX=0.857;entryY=0.519;entryDx=0;entryDy=0;entryPerimeter=0;" edge="1" parent="1">
                    <mxGeometry relative="1" as="geometry">
                        <mxPoint x="478.0050000000001" y="473" as="sourcePoint"/>
                        <mxPoint x="340.07000000000016" y="469.02" as="targetPoint"/>
                        <Array as="points">
                            <mxPoint x="478.5" y="470"/>
                            <mxPoint x="340.5" y="470"/>
                        </Array>
                    </mxGeometry>
                </mxCell>
                <mxCell id="88" value="" style="edgeStyle=orthogonalEdgeStyle;rounded=0;orthogonalLoop=1;jettySize=auto;html=1;" edge="1" parent="1">
                    <mxGeometry relative="1" as="geometry">
                        <mxPoint x="160" y="320" as="sourcePoint"/>
                        <mxPoint x="478.0000000000002" y="320.0000000000001" as="targetPoint"/>
                        <Array as="points">
                            <mxPoint x="154" y="320"/>
                        </Array>
                    </mxGeometry>
                </mxCell>
                <mxCell id="89" value="Requested&amp;nbsp;&lt;span style=&quot;font-family: Verdana; text-align: center;&quot;&gt;Write off reasons&amp;nbsp;&lt;/span&gt;&lt;div&gt;details and c&lt;span style=&quot;font-family: Verdana; text-align: center; text-wrap: nowrap;&quot;&gt;licks&amp;nbsp;&lt;/span&gt;&lt;/div&gt;&lt;div&gt;&lt;span style=&quot;font-family: Verdana; text-align: center; text-wrap: nowrap;&quot;&gt;submit&amp;nbsp;button&lt;/span&gt;&lt;/div&gt;" style="text;whiteSpace=wrap;html=1;" vertex="1" parent="1">
                    <mxGeometry x="160.75" y="270" width="338.5" height="30" as="geometry"/>
                </mxCell>
                <mxCell id="90" value="Display create Write off reasons screen" style="text;whiteSpace=wrap;html=1;" vertex="1" parent="1">
                    <mxGeometry x="170" y="220" width="120" height="40" as="geometry"/>
                </mxCell>
                <mxCell id="91" value="&lt;font color=&quot;#ff0000&quot;&gt;ALT: Redirect to View &lt;br&gt;Write off reasons Screen&lt;/font&gt;" style="text;html=1;align=center;verticalAlign=middle;resizable=0;points=[];autosize=1;strokeColor=none;fillColor=none;" vertex="1" parent="1">
                    <mxGeometry x="337" y="431" width="140" height="40" as="geometry"/>
                </mxCell>
                <mxCell id="92" value="&lt;font color=&quot;#ff0000&quot;&gt;ALT: Display View &lt;br&gt;Write off reasons Screen&lt;/font&gt;" style="text;html=1;align=center;verticalAlign=middle;resizable=0;points=[];autosize=1;strokeColor=none;fillColor=none;" vertex="1" parent="1">
                    <mxGeometry x="188" y="442" width="130" height="40" as="geometry"/>
                </mxCell>
                <mxCell id="93" style="edgeStyle=orthogonalEdgeStyle;rounded=0;orthogonalLoop=1;jettySize=auto;html=1;dashed=1;dashPattern=8 8;" edge="1" parent="1">
                    <mxGeometry relative="1" as="geometry">
                        <mxPoint x="774" y="609.8999999999999" as="targetPoint"/>
                        <Array as="points">
                            <mxPoint x="774" y="609.8999999999999"/>
                        </Array>
                        <mxPoint x="914" y="609.9699999999999" as="sourcePoint"/>
                    </mxGeometry>
                </mxCell>
                <mxCell id="94" value="Update Write off&amp;nbsp;&lt;div&gt;reasons records&lt;/div&gt;" style="edgeLabel;html=1;align=center;verticalAlign=middle;resizable=0;points=[];" vertex="1" connectable="0" parent="93">
                    <mxGeometry x="-0.163" y="-2" relative="1" as="geometry">
                        <mxPoint x="-20" y="-15" as="offset"/>
                    </mxGeometry>
                </mxCell>
                <mxCell id="95" value="" style="endArrow=classic;html=1;rounded=0;entryX=0.862;entryY=0.858;entryDx=0;entryDy=0;entryPerimeter=0;dashed=1;dashPattern=8 8;" edge="1" parent="1">
                    <mxGeometry width="50" height="50" relative="1" as="geometry">
                        <mxPoint x="330" y="690" as="sourcePoint"/>
                        <mxPoint x="157.5" y="689" as="targetPoint"/>
                    </mxGeometry>
                </mxCell>
                <mxCell id="96" value="Display View &lt;br&gt;Write off reasons Screen" style="text;html=1;align=center;verticalAlign=middle;resizable=0;points=[];autosize=1;strokeColor=none;fillColor=none;" vertex="1" parent="1">
                    <mxGeometry x="181.5" y="648" width="130" height="40" as="geometry"/>
                </mxCell>
                <mxCell id="97" value="&lt;font color=&quot;#ff0000&quot;&gt;ALT: Validation error details&lt;/font&gt;" style="text;html=1;align=center;verticalAlign=middle;resizable=0;points=[];autosize=1;strokeColor=none;fillColor=none;" vertex="1" parent="1">
                    <mxGeometry x="530" y="710" width="170" height="30" as="geometry"/>
                </mxCell>
                <mxCell id="98" style="edgeStyle=orthogonalEdgeStyle;rounded=0;orthogonalLoop=1;jettySize=auto;html=1;" edge="1" parent="1">
                    <mxGeometry relative="1" as="geometry">
                        <Array as="points">
                            <mxPoint x="536" y="1120"/>
                            <mxPoint x="536" y="1120"/>
                        </Array>
                        <mxPoint x="518.4999999999998" y="1120" as="sourcePoint"/>
                        <mxPoint x="657.0000000000002" y="1120" as="targetPoint"/>
                    </mxGeometry>
                </mxCell>
                <mxCell id="99" value="Request Write off&amp;nbsp;&lt;div&gt;reasons&amp;nbsp;Details&lt;/div&gt;" style="edgeLabel;html=1;align=center;verticalAlign=middle;resizable=0;points=[];" vertex="1" connectable="0" parent="98">
                    <mxGeometry x="-0.08" y="-1" relative="1" as="geometry">
                        <mxPoint y="-21" as="offset"/>
                    </mxGeometry>
                </mxCell>
                <mxCell id="100" style="edgeStyle=orthogonalEdgeStyle;rounded=0;orthogonalLoop=1;jettySize=auto;html=1;" edge="1" parent="1">
                    <mxGeometry relative="1" as="geometry">
                        <Array as="points">
                            <mxPoint x="675" y="1140"/>
                            <mxPoint x="675" y="1140"/>
                        </Array>
                        <mxPoint x="661.5" y="1140" as="sourcePoint"/>
                        <mxPoint x="790" y="1140" as="targetPoint"/>
                    </mxGeometry>
                </mxCell>
                <mxCell id="101" value="Retrieve Write off&amp;nbsp;&lt;div&gt;reasons&amp;nbsp;info&lt;/div&gt;" style="edgeLabel;html=1;align=center;verticalAlign=middle;resizable=0;points=[];" vertex="1" connectable="0" parent="100">
                    <mxGeometry x="-0.0921" relative="1" as="geometry">
                        <mxPoint x="5" y="-20" as="offset"/>
                    </mxGeometry>
                </mxCell>
                <mxCell id="102" style="edgeStyle=orthogonalEdgeStyle;rounded=0;orthogonalLoop=1;jettySize=auto;html=1;dashed=1;" edge="1" parent="1">
                    <mxGeometry relative="1" as="geometry">
                        <Array as="points">
                            <mxPoint x="923" y="1190"/>
                            <mxPoint x="923" y="1190"/>
                        </Array>
                        <mxPoint x="939.5" y="1190" as="sourcePoint"/>
                        <mxPoint x="798.3939393939395" y="1190" as="targetPoint"/>
                    </mxGeometry>
                </mxCell>
                <mxCell id="103" value="Write off&amp;nbsp;&lt;div&gt;reasons Records&lt;/div&gt;" style="edgeLabel;html=1;align=center;verticalAlign=middle;resizable=0;points=[];" vertex="1" connectable="0" parent="102">
                    <mxGeometry x="-0.3976" relative="1" as="geometry">
                        <mxPoint x="-25" y="-16" as="offset"/>
                    </mxGeometry>
                </mxCell>
                <mxCell id="104" style="edgeStyle=orthogonalEdgeStyle;rounded=0;orthogonalLoop=1;jettySize=auto;html=1;dashed=1;" edge="1" parent="1" source="48" target="45">
                    <mxGeometry relative="1" as="geometry">
                        <Array as="points">
                            <mxPoint x="630" y="1220"/>
                            <mxPoint x="630" y="1220"/>
                        </Array>
                    </mxGeometry>
                </mxCell>
                <mxCell id="105" value="Provided Write off&amp;nbsp;&lt;div&gt;reasons&amp;nbsp;Details&lt;/div&gt;" style="edgeLabel;html=1;align=center;verticalAlign=middle;resizable=0;points=[];" vertex="1" connectable="0" parent="104">
                    <mxGeometry x="0.4148" relative="1" as="geometry">
                        <mxPoint x="31" y="-20" as="offset"/>
                    </mxGeometry>
                </mxCell>
                <mxCell id="106" style="edgeStyle=orthogonalEdgeStyle;rounded=0;orthogonalLoop=1;jettySize=auto;html=1;dashed=1;" edge="1" parent="1" source="46">
                    <mxGeometry relative="1" as="geometry">
                        <mxPoint x="190" y="1238" as="targetPoint"/>
                        <Array as="points">
                            <mxPoint x="430" y="1238"/>
                            <mxPoint x="430" y="1238"/>
                        </Array>
                    </mxGeometry>
                </mxCell>
                <mxCell id="107" value="Display view Write off reasons screen" style="edgeLabel;html=1;align=center;verticalAlign=middle;resizable=0;points=[];" vertex="1" connectable="0" parent="106">
                    <mxGeometry x="0.1996" relative="1" as="geometry">
                        <mxPoint x="16" y="-10" as="offset"/>
                    </mxGeometry>
                </mxCell>
                <mxCell id="108" value="" style="endArrow=classic;html=1;rounded=0;" edge="1" parent="1">
                    <mxGeometry width="50" height="50" relative="1" as="geometry">
                        <mxPoint x="521.5" y="1300" as="sourcePoint"/>
                        <mxPoint x="656.5" y="1300" as="targetPoint"/>
                    </mxGeometry>
                </mxCell>
                <mxCell id="109" value="&lt;font style=&quot;font-size: 11px;&quot;&gt;&lt;span style=&quot;font-family: Verdana; text-align: center;&quot;&gt;Search Write off reasons&amp;nbsp;&lt;/span&gt;details&lt;/font&gt;" style="text;whiteSpace=wrap;html=1;" vertex="1" parent="1">
                    <mxGeometry x="533" y="1260" width="130" height="40" as="geometry"/>
                </mxCell>
                <mxCell id="110" value="Read Search&amp;nbsp;&lt;div&gt;Write off reasons&amp;nbsp;Records&lt;/div&gt;" style="edgeLabel;html=1;align=center;verticalAlign=middle;resizable=0;points=[];" vertex="1" connectable="0" parent="1">
                    <mxGeometry x="866.0031034482757" y="1199.0044827586207" as="geometry">
                        <mxPoint x="1" y="127" as="offset"/>
                    </mxGeometry>
                </mxCell>
                <mxCell id="111" style="edgeStyle=orthogonalEdgeStyle;rounded=0;orthogonalLoop=1;jettySize=auto;html=1;dashed=1;" edge="1" parent="1">
                    <mxGeometry relative="1" as="geometry">
                        <mxPoint x="797" y="1386" as="sourcePoint"/>
                        <mxPoint x="675" y="1386" as="targetPoint"/>
                        <Array as="points">
                            <mxPoint x="768" y="1386"/>
                            <mxPoint x="768" y="1386"/>
                        </Array>
                    </mxGeometry>
                </mxCell>
                <mxCell id="112" value="Retrieved Search &lt;br&gt;Write off reasons info" style="edgeLabel;html=1;align=center;verticalAlign=middle;resizable=0;points=[];" vertex="1" connectable="0" parent="111">
                    <mxGeometry x="-0.0351" relative="1" as="geometry">
                        <mxPoint x="-8" y="-16" as="offset"/>
                    </mxGeometry>
                </mxCell>
                <mxCell id="113" style="edgeStyle=orthogonalEdgeStyle;rounded=0;orthogonalLoop=1;jettySize=auto;html=1;dashed=1;" edge="1" parent="1">
                    <mxGeometry relative="1" as="geometry">
                        <mxPoint x="665" y="1406" as="sourcePoint"/>
                        <mxPoint x="529" y="1406" as="targetPoint"/>
                        <Array as="points">
                            <mxPoint x="638" y="1406"/>
                            <mxPoint x="638" y="1406"/>
                        </Array>
                    </mxGeometry>
                </mxCell>
                <mxCell id="114" value="Searched Write off&amp;nbsp;&lt;div&gt;reasons&amp;nbsp;Details&lt;/div&gt;" style="edgeLabel;html=1;align=center;verticalAlign=middle;resizable=0;points=[];" vertex="1" connectable="0" parent="113">
                    <mxGeometry x="0.4148" relative="1" as="geometry">
                        <mxPoint x="17" y="-20" as="offset"/>
                    </mxGeometry>
                </mxCell>
                <mxCell id="115" style="edgeStyle=orthogonalEdgeStyle;rounded=0;orthogonalLoop=1;jettySize=auto;html=1;entryX=0.883;entryY=0.216;entryDx=0;entryDy=0;entryPerimeter=0;dashed=1;" edge="1" parent="1">
                    <mxGeometry relative="1" as="geometry">
                        <mxPoint x="516" y="1424" as="sourcePoint"/>
                        <mxPoint x="190" y="1424" as="targetPoint"/>
                        <Array as="points">
                            <mxPoint x="433" y="1424"/>
                            <mxPoint x="433" y="1424"/>
                        </Array>
                    </mxGeometry>
                </mxCell>
                <mxCell id="116" value="Display updated view Write off reasons screen" style="edgeLabel;html=1;align=center;verticalAlign=middle;resizable=0;points=[];" vertex="1" connectable="0" parent="115">
                    <mxGeometry x="0.1996" relative="1" as="geometry">
                        <mxPoint x="17" y="-10" as="offset"/>
                    </mxGeometry>
                </mxCell>
                <mxCell id="117" style="edgeStyle=orthogonalEdgeStyle;rounded=0;orthogonalLoop=1;jettySize=auto;html=1;dashed=1;" edge="1" parent="1">
                    <mxGeometry relative="1" as="geometry">
                        <mxPoint x="946.49" y="1380" as="sourcePoint"/>
                        <mxPoint x="800" y="1380" as="targetPoint"/>
                        <Array as="points">
                            <mxPoint x="880" y="1380"/>
                            <mxPoint x="880" y="1380"/>
                        </Array>
                    </mxGeometry>
                </mxCell>
                <mxCell id="118" value="Searched Write off&amp;nbsp;&lt;div&gt;reasons&amp;nbsp;Records&lt;/div&gt;" style="edgeLabel;html=1;align=center;verticalAlign=middle;resizable=0;points=[];" vertex="1" connectable="0" parent="117">
                    <mxGeometry x="-0.3976" relative="1" as="geometry">
                        <mxPoint x="-40" y="-15" as="offset"/>
                    </mxGeometry>
                </mxCell>
                <mxCell id="119" style="edgeStyle=orthogonalEdgeStyle;rounded=0;orthogonalLoop=1;jettySize=auto;html=1;dashed=1;" edge="1" parent="1">
                    <mxGeometry relative="1" as="geometry">
                        <mxPoint x="790" y="1483.78" as="sourcePoint"/>
                        <mxPoint x="668" y="1483.78" as="targetPoint"/>
                        <Array as="points">
                            <mxPoint x="761" y="1483.78"/>
                            <mxPoint x="761" y="1483.78"/>
                        </Array>
                    </mxGeometry>
                </mxCell>
                <mxCell id="120" value="&lt;font color=&quot;#ff0000&quot;&gt;ALT: No Write&amp;nbsp;&lt;/font&gt;&lt;div&gt;&lt;font color=&quot;#ff0000&quot;&gt;off reasons&lt;/font&gt;&lt;/div&gt;" style="edgeLabel;html=1;align=center;verticalAlign=middle;resizable=0;points=[];" vertex="1" connectable="0" parent="119">
                    <mxGeometry x="-0.0351" relative="1" as="geometry">
                        <mxPoint x="-8" y="-16" as="offset"/>
                    </mxGeometry>
                </mxCell>
                <mxCell id="121" value="&lt;div style=&quot;font-size: 9px;&quot;&gt;&lt;div style=&quot;&quot;&gt;Interface&lt;/div&gt;&lt;div style=&quot;&quot;&gt;Write off reasons Screen&lt;/div&gt;&lt;/div&gt;" style="shape=umlLifeline;perimeter=lifelinePerimeter;whiteSpace=wrap;html=1;container=1;collapsible=0;recursiveResize=0;outlineConnect=0;rounded=1;shadow=0;comic=0;labelBackgroundColor=none;strokeWidth=1;fontFamily=Verdana;fontSize=12;align=center;size=30;" vertex="1" parent="1">
                    <mxGeometry x="110" y="1990" width="100" height="1140" as="geometry"/>
                </mxCell>
                <mxCell id="122" value="" style="html=1;points=[];perimeter=orthogonalPerimeter;rounded=0;shadow=0;comic=0;labelBackgroundColor=none;strokeWidth=1;fontFamily=Verdana;fontSize=12;align=center;" vertex="1" parent="121">
                    <mxGeometry x="41" y="150" width="10" height="990" as="geometry"/>
                </mxCell>
                <mxCell id="123" value="ALT" style="shape=umlFrame;whiteSpace=wrap;html=1;pointerEvents=0;" vertex="1" parent="121">
                    <mxGeometry x="-472" y="713" width="1290" height="80" as="geometry"/>
                </mxCell>
                <mxCell id="124" value="" style="endArrow=classic;html=1;rounded=0;entryX=0.92;entryY=0.336;entryDx=0;entryDy=0;entryPerimeter=0;dashed=1;exitX=-0.001;exitY=0.367;exitDx=0;exitDy=0;exitPerimeter=0;" edge="1" parent="121">
                    <mxGeometry width="50" height="50" relative="1" as="geometry">
                        <mxPoint x="358" y="772.52" as="sourcePoint"/>
                        <mxPoint x="-279.49999999999983" y="773" as="targetPoint"/>
                    </mxGeometry>
                </mxCell>
                <mxCell id="125" value="&lt;font color=&quot;#ff0000&quot;&gt;ALT: Display field contains invalid data notification&lt;/font&gt;" style="text;html=1;align=center;verticalAlign=middle;whiteSpace=wrap;rounded=0;" vertex="1" parent="121">
                    <mxGeometry x="-247" y="743" width="275" height="30" as="geometry"/>
                </mxCell>
                <mxCell id="126" value="" style="endArrow=classic;html=1;rounded=0;dashed=1;" edge="1" parent="121">
                    <mxGeometry width="50" height="50" relative="1" as="geometry">
                        <mxPoint x="201" y="753" as="sourcePoint"/>
                        <mxPoint x="361.0100000000002" y="752.9999999999995" as="targetPoint"/>
                    </mxGeometry>
                </mxCell>
                <mxCell id="127" value="ALT: Invalidate fields" style="text;html=1;align=center;verticalAlign=middle;whiteSpace=wrap;rounded=0;fontColor=#FF0000;" vertex="1" parent="121">
                    <mxGeometry x="234.5" y="723" width="103.5" height="30" as="geometry"/>
                </mxCell>
                <mxCell id="128" value="Fields not &lt;br&gt;valid - Angular" style="text;html=1;align=center;verticalAlign=middle;resizable=0;points=[];autosize=1;strokeColor=none;fillColor=none;fontColor=#000000;textShadow=1;" vertex="1" parent="121">
                    <mxGeometry x="-407" y="718" width="100" height="40" as="geometry"/>
                </mxCell>
                <mxCell id="129" value="ALT" style="shape=umlFrame;whiteSpace=wrap;html=1;pointerEvents=0;" vertex="1" parent="121">
                    <mxGeometry x="-470" y="812" width="1280" height="100" as="geometry"/>
                </mxCell>
                <mxCell id="130" value="" style="endArrow=classic;html=1;rounded=0;dashed=1;" edge="1" parent="121">
                    <mxGeometry width="50" height="50" relative="1" as="geometry">
                        <mxPoint x="360.0100000000002" y="891.5799999999999" as="sourcePoint"/>
                        <mxPoint x="-277.5" y="891.5799999999995" as="targetPoint"/>
                    </mxGeometry>
                </mxCell>
                <mxCell id="131" value="&lt;font color=&quot;#ff0000&quot;&gt;ALT:&amp;nbsp;&lt;/font&gt;&lt;span style=&quot;color: rgb(255, 0, 0);&quot;&gt;Display f&lt;/span&gt;&lt;font color=&quot;#ff0000&quot;&gt;ield contains invalid data notification&lt;/font&gt;" style="text;html=1;align=center;verticalAlign=middle;whiteSpace=wrap;rounded=0;" vertex="1" parent="121">
                    <mxGeometry x="-245" y="862" width="275" height="30" as="geometry"/>
                </mxCell>
                <mxCell id="132" value="" style="endArrow=classic;html=1;rounded=0;dashed=1;" edge="1" parent="121">
                    <mxGeometry width="50" height="50" relative="1" as="geometry">
                        <mxPoint x="560" y="842" as="sourcePoint"/>
                        <mxPoint x="201.5" y="841.9999999999995" as="targetPoint"/>
                    </mxGeometry>
                </mxCell>
                <mxCell id="133" value="ALT: Invalided Write off reasons changes" style="edgeLabel;html=1;align=center;verticalAlign=middle;resizable=0;points=[];fontColor=#FF0000;" vertex="1" connectable="0" parent="132">
                    <mxGeometry x="-0.2876" relative="1" as="geometry">
                        <mxPoint x="29" y="-10" as="offset"/>
                    </mxGeometry>
                </mxCell>
                <mxCell id="134" value="" style="endArrow=classic;html=1;rounded=0;dashed=1;" edge="1" parent="121">
                    <mxGeometry width="50" height="50" relative="1" as="geometry">
                        <mxPoint x="200" y="872" as="sourcePoint"/>
                        <mxPoint x="360.0100000000002" y="871.9999999999995" as="targetPoint"/>
                    </mxGeometry>
                </mxCell>
                <mxCell id="135" value="ALT: Invalidate fields" style="text;html=1;align=center;verticalAlign=middle;whiteSpace=wrap;rounded=0;fontColor=#FF0000;" vertex="1" parent="121">
                    <mxGeometry x="230" y="842" width="103.5" height="30" as="geometry"/>
                </mxCell>
                <mxCell id="136" value="Fields not valid -&lt;div&gt;ASP.NET 7 Web API&lt;/div&gt;" style="text;html=1;align=center;verticalAlign=middle;resizable=0;points=[];autosize=1;strokeColor=none;fillColor=none;fontColor=#000000;textShadow=1;" vertex="1" parent="121">
                    <mxGeometry x="-422" y="812" width="130" height="40" as="geometry"/>
                </mxCell>
                <mxCell id="137" value="System" style="shape=umlLifeline;perimeter=lifelinePerimeter;whiteSpace=wrap;html=1;container=1;collapsible=0;recursiveResize=0;outlineConnect=0;rounded=1;shadow=0;comic=0;labelBackgroundColor=none;strokeWidth=1;fontFamily=Verdana;fontSize=12;align=center;" vertex="1" parent="1">
                    <mxGeometry x="255" y="1990" width="100" height="1140" as="geometry"/>
                </mxCell>
                <mxCell id="138" value="" style="html=1;points=[];perimeter=orthogonalPerimeter;rounded=0;shadow=0;comic=0;labelBackgroundColor=none;strokeWidth=1;fontFamily=Verdana;fontSize=12;align=center;" vertex="1" parent="137">
                    <mxGeometry x="45" y="150" width="10" height="990" as="geometry"/>
                </mxCell>
                <mxCell id="139" value="" style="endArrow=classic;html=1;rounded=0;" edge="1" parent="137">
                    <mxGeometry width="50" height="50" relative="1" as="geometry">
                        <mxPoint x="222.51000000000022" y="360" as="sourcePoint"/>
                        <mxPoint x="48.02999999999997" y="360" as="targetPoint"/>
                    </mxGeometry>
                </mxCell>
                <mxCell id="140" value="" style="endArrow=classic;html=1;rounded=0;dashed=1;" edge="1" parent="137">
                    <mxGeometry width="50" height="50" relative="1" as="geometry">
                        <mxPoint x="45" y="480" as="sourcePoint"/>
                        <mxPoint x="-95.00000000000003" y="480" as="targetPoint"/>
                    </mxGeometry>
                </mxCell>
                <mxCell id="141" value="Display update &lt;br&gt;Write off reasons table" style="edgeLabel;html=1;align=center;verticalAlign=middle;resizable=0;points=[];" vertex="1" connectable="0" parent="140">
                    <mxGeometry x="0.3527" y="1" relative="1" as="geometry">
                        <mxPoint x="25" y="-21" as="offset"/>
                    </mxGeometry>
                </mxCell>
                <mxCell id="142" value="&lt;div&gt;Controller&lt;/div&gt;&lt;div&gt;Write off reasons&lt;br&gt;&lt;/div&gt;" style="shape=umlLifeline;perimeter=lifelinePerimeter;whiteSpace=wrap;html=1;container=1;collapsible=0;recursiveResize=0;outlineConnect=0;rounded=1;shadow=0;comic=0;labelBackgroundColor=none;strokeWidth=1;fontFamily=Verdana;fontSize=12;align=center;" vertex="1" parent="1">
                    <mxGeometry x="590" y="1990" width="170" height="1130" as="geometry"/>
                </mxCell>
                <mxCell id="143" value="" style="html=1;points=[];perimeter=orthogonalPerimeter;rounded=0;shadow=0;comic=0;labelBackgroundColor=none;strokeWidth=1;fontFamily=Verdana;fontSize=12;align=center;" vertex="1" parent="142">
                    <mxGeometry x="80" y="150" width="10" height="980" as="geometry"/>
                </mxCell>
                <mxCell id="144" value="Entity&lt;br&gt;Write off reasons" style="shape=umlLifeline;perimeter=lifelinePerimeter;whiteSpace=wrap;html=1;container=1;collapsible=0;recursiveResize=0;outlineConnect=0;rounded=1;shadow=0;comic=0;labelBackgroundColor=none;strokeWidth=1;fontFamily=Verdana;fontSize=12;align=center;" vertex="1" parent="1">
                    <mxGeometry x="810" y="1990" width="100" height="1130" as="geometry"/>
                </mxCell>
                <mxCell id="145" value="" style="html=1;points=[];perimeter=orthogonalPerimeter;rounded=0;shadow=0;comic=0;labelBackgroundColor=none;strokeWidth=1;fontFamily=Verdana;fontSize=12;align=center;" vertex="1" parent="144">
                    <mxGeometry x="45" y="150" width="10" height="980" as="geometry"/>
                </mxCell>
                <mxCell id="146" style="rounded=0;orthogonalLoop=1;jettySize=auto;html=1;exitX=0.5;exitY=1;exitDx=0;exitDy=0;dashed=1;shape=link;strokeWidth=1;strokeColor=none;" edge="1" parent="1" source="147">
                    <mxGeometry relative="1" as="geometry">
                        <mxPoint x="-195" y="2570" as="targetPoint"/>
                    </mxGeometry>
                </mxCell>
                <mxCell id="147" value="" style="shape=actor;whiteSpace=wrap;html=1;" vertex="1" parent="1">
                    <mxGeometry x="-195" y="1990" width="40" height="60" as="geometry"/>
                </mxCell>
                <mxCell id="148" value="&lt;div&gt;&amp;lt;&amp;lt;PBA&amp;gt;&amp;gt;&lt;/div&gt;&lt;div&gt;Admin&lt;/div&gt;" style="text;html=1;align=center;verticalAlign=middle;resizable=0;points=[];autosize=1;strokeColor=none;fillColor=none;" vertex="1" parent="1">
                    <mxGeometry x="-280" y="2015" width="70" height="40" as="geometry"/>
                </mxCell>
                <mxCell id="149" value="" style="endArrow=none;dashed=1;html=1;dashPattern=1 3;strokeWidth=2;rounded=0;entryX=0.5;entryY=1;entryDx=0;entryDy=0;" edge="1" parent="1" source="150" target="147">
                    <mxGeometry width="50" height="50" relative="1" as="geometry">
                        <mxPoint x="-175" y="2570" as="sourcePoint"/>
                        <mxPoint x="245" y="2180" as="targetPoint"/>
                    </mxGeometry>
                </mxCell>
                <mxCell id="150" value="" style="html=1;points=[];perimeter=orthogonalPerimeter;rounded=0;shadow=0;comic=0;labelBackgroundColor=none;strokeWidth=1;fontFamily=Verdana;fontSize=12;align=center;" vertex="1" parent="1">
                    <mxGeometry x="-182.5" y="2140" width="15" height="980" as="geometry"/>
                </mxCell>
                <mxCell id="151" value="&lt;div style=&quot;font-size: 10px;&quot;&gt;&lt;div style=&quot;font-size: 12px;&quot;&gt;Interface&lt;/div&gt;&lt;div style=&quot;font-size: 12px;&quot;&gt;Edit Write off reasons Modal&lt;/div&gt;&lt;/div&gt;" style="shape=umlLifeline;perimeter=lifelinePerimeter;whiteSpace=wrap;html=1;container=1;collapsible=0;recursiveResize=0;outlineConnect=0;rounded=1;shadow=0;comic=0;labelBackgroundColor=none;strokeWidth=1;fontFamily=Verdana;fontSize=12;align=center;" vertex="1" parent="1">
                    <mxGeometry x="405.01" y="1990" width="140" height="1130" as="geometry"/>
                </mxCell>
                <mxCell id="152" value="" style="html=1;points=[];perimeter=orthogonalPerimeter;rounded=0;shadow=0;comic=0;labelBackgroundColor=none;strokeWidth=1;fontFamily=Verdana;fontSize=12;align=center;" vertex="1" parent="151">
                    <mxGeometry x="65" y="150" width="10" height="980" as="geometry"/>
                </mxCell>
                <mxCell id="153" value="" style="endArrow=classic;html=1;rounded=0;" edge="1" parent="151">
                    <mxGeometry width="50" height="50" relative="1" as="geometry">
                        <mxPoint x="-102.5626315789475" y="394.6199999999999" as="sourcePoint"/>
                        <mxPoint x="262.48999999999955" y="394.6199999999999" as="targetPoint"/>
                    </mxGeometry>
                </mxCell>
                <mxCell id="154" value="" style="endArrow=classic;html=1;rounded=0;exitX=0.089;exitY=0.124;exitDx=0;exitDy=0;exitPerimeter=0;dashed=1;" edge="1" parent="151">
                    <mxGeometry width="50" height="50" relative="1" as="geometry">
                        <mxPoint x="265.8899999999999" y="460.00000000000006" as="sourcePoint"/>
                        <mxPoint x="-95.75999999999976" y="460" as="targetPoint"/>
                    </mxGeometry>
                </mxCell>
                <mxCell id="155" value="Successful update" style="edgeLabel;html=1;align=center;verticalAlign=middle;resizable=0;points=[];" vertex="1" connectable="0" parent="154">
                    <mxGeometry x="-0.2629" y="-1" relative="1" as="geometry">
                        <mxPoint x="-138" y="-9" as="offset"/>
                    </mxGeometry>
                </mxCell>
                <mxCell id="156" value="" style="endArrow=classic;html=1;rounded=0;entryX=0.866;entryY=0.035;entryDx=0;entryDy=0;entryPerimeter=0;" edge="1" parent="151">
                    <mxGeometry width="50" height="50" relative="1" as="geometry">
                        <mxPoint x="-95.00999999999999" y="240" as="sourcePoint"/>
                        <mxPoint x="67.00000000000006" y="240" as="targetPoint"/>
                    </mxGeometry>
                </mxCell>
                <mxCell id="157" value="" style="endArrow=classic;html=1;rounded=0;" edge="1" parent="1" target="121">
                    <mxGeometry width="50" height="50" relative="1" as="geometry">
                        <mxPoint x="-175" y="2160" as="sourcePoint"/>
                        <mxPoint x="145" y="2140" as="targetPoint"/>
                    </mxGeometry>
                </mxCell>
                <mxCell id="158" value="Clicks &quot;Edit&quot; button" style="text;html=1;align=center;verticalAlign=middle;resizable=0;points=[];autosize=1;strokeColor=none;fillColor=none;" vertex="1" parent="1">
                    <mxGeometry x="-80" y="2130" width="120" height="30" as="geometry"/>
                </mxCell>
                <mxCell id="159" value="" style="endArrow=classic;html=1;rounded=0;" edge="1" parent="1" target="137">
                    <mxGeometry width="50" height="50" relative="1" as="geometry">
                        <mxPoint x="164.4473684210525" y="2190" as="sourcePoint"/>
                        <mxPoint x="295" y="2190" as="targetPoint"/>
                    </mxGeometry>
                </mxCell>
                <mxCell id="160" value="Retrieves the record Id of selected record" style="text;html=1;align=center;verticalAlign=middle;whiteSpace=wrap;rounded=0;" vertex="1" parent="1">
                    <mxGeometry x="185" y="2150" width="90" height="30" as="geometry"/>
                </mxCell>
                <mxCell id="161" value="" style="endArrow=classic;html=1;rounded=0;dashed=1;" edge="1" parent="1" source="151" target="150">
                    <mxGeometry width="50" height="50" relative="1" as="geometry">
                        <mxPoint x="225" y="2320" as="sourcePoint"/>
                        <mxPoint x="275" y="2270" as="targetPoint"/>
                        <Array as="points">
                            <mxPoint x="385" y="2260"/>
                        </Array>
                    </mxGeometry>
                </mxCell>
                <mxCell id="162" value="Display Edit Write off reasons Modal" style="text;html=1;align=center;verticalAlign=middle;whiteSpace=wrap;rounded=0;" vertex="1" parent="1">
                    <mxGeometry x="-95" y="2230" width="170" height="30" as="geometry"/>
                </mxCell>
                <mxCell id="163" value="" style="endArrow=classic;html=1;rounded=0;exitX=0.033;exitY=0.1;exitDx=0;exitDy=0;exitPerimeter=0;" edge="1" parent="1">
                    <mxGeometry width="50" height="50" relative="1" as="geometry">
                        <mxPoint x="-184.49500000000012" y="2300" as="sourcePoint"/>
                        <mxPoint x="472.51" y="2300" as="targetPoint"/>
                        <Array as="points">
                            <mxPoint x="82.50999999999999" y="2300"/>
                        </Array>
                    </mxGeometry>
                </mxCell>
                <mxCell id="164" value="Completes new details and clicks save changes" style="text;html=1;align=center;verticalAlign=middle;whiteSpace=wrap;rounded=0;" vertex="1" parent="1">
                    <mxGeometry x="-135" y="2274" width="265" height="30" as="geometry"/>
                </mxCell>
                <mxCell id="165" value="Validate new changes" style="text;html=1;align=center;verticalAlign=middle;whiteSpace=wrap;rounded=0;" vertex="1" parent="1">
                    <mxGeometry x="500" y="2350" width="140" height="30" as="geometry"/>
                </mxCell>
                <mxCell id="166" value="Displays Data saved successfully notification" style="text;html=1;align=center;verticalAlign=middle;whiteSpace=wrap;rounded=0;" vertex="1" parent="1">
                    <mxGeometry x="-142.5" y="2510" width="265" height="30" as="geometry"/>
                </mxCell>
                <mxCell id="167" value="Save new changes" style="text;html=1;align=center;verticalAlign=middle;whiteSpace=wrap;rounded=0;" vertex="1" parent="1">
                    <mxGeometry x="695" y="2370" width="140" height="30" as="geometry"/>
                </mxCell>
                <mxCell id="168" value="Data not &lt;br&gt;saved successfully" style="text;html=1;align=center;verticalAlign=middle;resizable=0;points=[];autosize=1;strokeColor=none;fillColor=none;fontColor=#000000;textShadow=1;" vertex="1" parent="1">
                    <mxGeometry x="-305" y="2940" width="120" height="40" as="geometry"/>
                </mxCell>
                <mxCell id="169" value="ALT" style="shape=umlFrame;whiteSpace=wrap;html=1;pointerEvents=0;" vertex="1" parent="1">
                    <mxGeometry x="-360" y="2940" width="1280" height="160" as="geometry"/>
                </mxCell>
                <mxCell id="170" value="" style="endArrow=classic;html=1;rounded=0;dashed=1;" edge="1" parent="1" source="121">
                    <mxGeometry width="50" height="50" relative="1" as="geometry">
                        <mxPoint x="669.25" y="3080" as="sourcePoint"/>
                        <mxPoint x="-163.25" y="3080" as="targetPoint"/>
                    </mxGeometry>
                </mxCell>
                <mxCell id="171" value="&lt;font color=&quot;#ff0000&quot;&gt;ALT: Displays Data not saved successfully notification&lt;/font&gt;" style="text;html=1;align=center;verticalAlign=middle;whiteSpace=wrap;rounded=0;" vertex="1" parent="1">
                    <mxGeometry x="-130.75" y="3050" width="265" height="30" as="geometry"/>
                </mxCell>
                <mxCell id="172" value="" style="endArrow=classic;html=1;rounded=0;exitX=0.9;exitY=0.101;exitDx=0;exitDy=0;exitPerimeter=0;" edge="1" parent="1">
                    <mxGeometry width="50" height="50" relative="1" as="geometry">
                        <mxPoint x="676.86" y="2400" as="sourcePoint"/>
                        <mxPoint x="857.36" y="2400" as="targetPoint"/>
                    </mxGeometry>
                </mxCell>
                <mxCell id="173" value="" style="endArrow=classic;html=1;rounded=0;exitX=0.089;exitY=0.664;exitDx=0;exitDy=0;exitPerimeter=0;dashed=1;" edge="1" parent="1">
                    <mxGeometry width="50" height="50" relative="1" as="geometry">
                        <mxPoint x="859.9999999999994" y="2979.84" as="sourcePoint"/>
                        <mxPoint x="684.11" y="2979.84" as="targetPoint"/>
                    </mxGeometry>
                </mxCell>
                <mxCell id="174" value="&lt;font color=&quot;#ff0000&quot;&gt;ALT: Unable to save changes&lt;/font&gt;" style="text;html=1;align=center;verticalAlign=middle;whiteSpace=wrap;rounded=0;" vertex="1" parent="1">
                    <mxGeometry x="699.11" y="2950" width="140" height="30" as="geometry"/>
                </mxCell>
                <mxCell id="175" value="Provides Write off reasons details" style="text;html=1;align=center;verticalAlign=middle;whiteSpace=wrap;rounded=0;" vertex="1" parent="1">
                    <mxGeometry x="345" y="2190" width="80" height="30" as="geometry"/>
                </mxCell>
                <mxCell id="176" value="Validate fields" style="text;html=1;align=center;verticalAlign=middle;whiteSpace=wrap;rounded=0;" vertex="1" parent="1">
                    <mxGeometry x="345" y="2320" width="80" height="30" as="geometry"/>
                </mxCell>
                <mxCell id="177" value="Displays View Write off reasons Screen&amp;nbsp;" style="text;html=1;align=center;verticalAlign=middle;whiteSpace=wrap;rounded=0;" vertex="1" parent="1">
                    <mxGeometry x="-143.5" y="2470" width="265" height="30" as="geometry"/>
                </mxCell>
                <mxCell id="178" value="" style="endArrow=classic;html=1;rounded=0;dashed=1;" edge="1" parent="1">
                    <mxGeometry width="50" height="50" relative="1" as="geometry">
                        <mxPoint x="852" y="2430" as="sourcePoint"/>
                        <mxPoint x="676.8699999999999" y="2430" as="targetPoint"/>
                    </mxGeometry>
                </mxCell>
                <mxCell id="179" value="Updated Write off reasons&amp;nbsp;" style="edgeLabel;html=1;align=center;verticalAlign=middle;resizable=0;points=[];" vertex="1" connectable="0" parent="178">
                    <mxGeometry x="0.2856" y="-1" relative="1" as="geometry">
                        <mxPoint x="20" y="-9" as="offset"/>
                    </mxGeometry>
                </mxCell>
                <mxCell id="180" value="ALT" style="shape=umlFrame;whiteSpace=wrap;html=1;pointerEvents=0;" vertex="1" parent="1">
                    <mxGeometry x="-355" y="2550" width="1275" height="130" as="geometry"/>
                </mxCell>
                <mxCell id="181" value="" style="endArrow=classic;html=1;rounded=0;" edge="1" parent="1">
                    <mxGeometry width="50" height="50" relative="1" as="geometry">
                        <mxPoint x="-166.25" y="2594.44" as="sourcePoint"/>
                        <mxPoint x="466.25" y="2594.44" as="targetPoint"/>
                    </mxGeometry>
                </mxCell>
                <mxCell id="182" value="Admin does&amp;nbsp;&lt;div&gt;not&amp;nbsp;&lt;div&gt;update the&lt;/div&gt;&lt;div&gt;&amp;nbsp;Write off reasons&lt;/div&gt;&lt;/div&gt;" style="text;html=1;align=center;verticalAlign=middle;resizable=0;points=[];autosize=1;strokeColor=none;fillColor=none;fontColor=#000000;textShadow=1;" vertex="1" parent="1">
                    <mxGeometry x="-300" y="2548" width="120" height="70" as="geometry"/>
                </mxCell>
                <mxCell id="183" value="" style="endArrow=classic;html=1;rounded=0;dashed=1;entryX=1.167;entryY=0.207;entryDx=0;entryDy=0;entryPerimeter=0;exitX=-0.069;exitY=0.113;exitDx=0;exitDy=0;exitPerimeter=0;" edge="1" parent="1">
                    <mxGeometry width="50" height="50" relative="1" as="geometry">
                        <mxPoint x="155.30999999999995" y="2541.84" as="sourcePoint"/>
                        <mxPoint x="-167.50499999999988" y="2540" as="targetPoint"/>
                    </mxGeometry>
                </mxCell>
                <mxCell id="184" value="&lt;font color=&quot;#ff0000&quot;&gt;ALT: Clicks cancel&lt;/font&gt;" style="text;html=1;align=center;verticalAlign=middle;whiteSpace=wrap;rounded=0;" vertex="1" parent="1">
                    <mxGeometry x="-85" y="2570" width="130" height="30" as="geometry"/>
                </mxCell>
                <mxCell id="185" value="ALT: Canceled update Write off reasons" style="text;html=1;align=center;verticalAlign=middle;whiteSpace=wrap;rounded=0;fontColor=#FF0000;" vertex="1" parent="1">
                    <mxGeometry x="310" y="2603" width="150" height="30" as="geometry"/>
                </mxCell>
                <mxCell id="186" value="" style="endArrow=classic;html=1;rounded=0;dashed=1;" edge="1" parent="1">
                    <mxGeometry width="50" height="50" relative="1" as="geometry">
                        <mxPoint x="474.5100000000002" y="2638.89" as="sourcePoint"/>
                        <mxPoint x="310" y="2638.89" as="targetPoint"/>
                    </mxGeometry>
                </mxCell>
                <mxCell id="187" value="" style="endArrow=classic;html=1;rounded=0;dashed=1;entryX=1.167;entryY=0.207;entryDx=0;entryDy=0;entryPerimeter=0;exitX=-0.069;exitY=0.113;exitDx=0;exitDy=0;exitPerimeter=0;" edge="1" parent="1">
                    <mxGeometry width="50" height="50" relative="1" as="geometry">
                        <mxPoint x="155.99999999999994" y="2501.84" as="sourcePoint"/>
                        <mxPoint x="-166.81499999999988" y="2500" as="targetPoint"/>
                    </mxGeometry>
                </mxCell>
                <mxCell id="188" value="" style="endArrow=classic;html=1;rounded=0;dashed=1;exitX=0.4;exitY=0.254;exitDx=0;exitDy=0;exitPerimeter=0;" edge="1" parent="1">
                    <mxGeometry width="50" height="50" relative="1" as="geometry">
                        <mxPoint x="160" y="2670.24" as="sourcePoint"/>
                        <mxPoint x="-163.01" y="2670" as="targetPoint"/>
                    </mxGeometry>
                </mxCell>
                <mxCell id="189" value="ALT: Displays View Write off reasons Screen&amp;nbsp;" style="text;html=1;align=center;verticalAlign=middle;whiteSpace=wrap;rounded=0;fontColor=#FF0000;" vertex="1" parent="1">
                    <mxGeometry x="-150" y="2640" width="265" height="30" as="geometry"/>
                </mxCell>
                <mxCell id="190" value="" style="endArrow=classic;html=1;rounded=0;dashed=1;" edge="1" parent="1">
                    <mxGeometry width="50" height="50" relative="1" as="geometry">
                        <mxPoint x="298" y="2654" as="sourcePoint"/>
                        <mxPoint x="168" y="2654.44" as="targetPoint"/>
                    </mxGeometry>
                </mxCell>
                <mxCell id="191" value="ALT: Canceled update&amp;nbsp;" style="text;html=1;align=center;verticalAlign=middle;whiteSpace=wrap;rounded=0;fontColor=#FF0000;" vertex="1" parent="1">
                    <mxGeometry x="157.5" y="2620" width="150" height="30" as="geometry"/>
                </mxCell>
                <mxCell id="192" value="" style="endArrow=classic;html=1;rounded=0;exitX=0.089;exitY=0.664;exitDx=0;exitDy=0;exitPerimeter=0;dashed=1;" edge="1" parent="1" target="138">
                    <mxGeometry width="50" height="50" relative="1" as="geometry">
                        <mxPoint x="665.8899999999994" y="3010" as="sourcePoint"/>
                        <mxPoint x="490" y="3010" as="targetPoint"/>
                    </mxGeometry>
                </mxCell>
                <mxCell id="193" value="&lt;font color=&quot;#ff0000&quot;&gt;ALT: Unsuccessful update&lt;/font&gt;" style="text;html=1;align=center;verticalAlign=middle;whiteSpace=wrap;rounded=0;" vertex="1" parent="1">
                    <mxGeometry x="500" y="2980" width="140" height="30" as="geometry"/>
                </mxCell>
                <mxCell id="194" value="" style="endArrow=classic;html=1;rounded=0;dashed=1;" edge="1" parent="1" target="121">
                    <mxGeometry width="50" height="50" relative="1" as="geometry">
                        <mxPoint x="311.5" y="3060" as="sourcePoint"/>
                        <mxPoint x="471.5100000000002" y="3059.9999999999995" as="targetPoint"/>
                    </mxGeometry>
                </mxCell>
                <mxCell id="195" value="ALT: Unsuccess Write off reasons change" style="text;html=1;align=center;verticalAlign=middle;whiteSpace=wrap;rounded=0;fontColor=#FF0000;" vertex="1" parent="1">
                    <mxGeometry x="182.5" y="3020" width="103.5" height="30" as="geometry"/>
                </mxCell>
                <mxCell id="196" value="&lt;div style=&quot;font-size: 11px;&quot;&gt;&lt;font style=&quot;font-size: 11px;&quot;&gt;Interface&lt;/font&gt;&lt;/div&gt;&lt;div style=&quot;font-size: 11px;&quot;&gt;&lt;font style=&quot;font-size: 11px;&quot;&gt;Delete Write off reasons Notification&lt;/font&gt;&lt;br&gt;&lt;/div&gt;" style="shape=umlLifeline;perimeter=lifelinePerimeter;whiteSpace=wrap;html=1;container=1;collapsible=0;recursiveResize=0;outlineConnect=0;rounded=1;shadow=0;comic=0;labelBackgroundColor=none;strokeWidth=1;fontFamily=Verdana;fontSize=12;align=center;" vertex="1" parent="1">
                    <mxGeometry x="207" y="3300" width="100" height="820" as="geometry"/>
                </mxCell>
                <mxCell id="197" value="" style="html=1;points=[];perimeter=orthogonalPerimeter;rounded=0;shadow=0;comic=0;labelBackgroundColor=none;strokeWidth=1;fontFamily=Verdana;fontSize=12;align=center;" vertex="1" parent="196">
                    <mxGeometry x="41" y="150" width="10" height="670" as="geometry"/>
                </mxCell>
                <mxCell id="198" value="" style="endArrow=classic;html=1;rounded=0;entryX=-0.1;entryY=0.074;entryDx=0;entryDy=0;entryPerimeter=0;" edge="1" parent="196">
                    <mxGeometry width="50" height="50" relative="1" as="geometry">
                        <mxPoint x="-282.5" y="239.40999999999985" as="sourcePoint"/>
                        <mxPoint x="40" y="239.40999999999985" as="targetPoint"/>
                    </mxGeometry>
                </mxCell>
                <mxCell id="199" value="System" style="shape=umlLifeline;perimeter=lifelinePerimeter;whiteSpace=wrap;html=1;container=1;collapsible=0;recursiveResize=0;outlineConnect=0;rounded=1;shadow=0;comic=0;labelBackgroundColor=none;strokeWidth=1;fontFamily=Verdana;fontSize=12;align=center;" vertex="1" parent="1">
                    <mxGeometry x="347" y="3300" width="100" height="820" as="geometry"/>
                </mxCell>
                <mxCell id="200" value="" style="html=1;points=[];perimeter=orthogonalPerimeter;rounded=0;shadow=0;comic=0;labelBackgroundColor=none;strokeWidth=1;fontFamily=Verdana;fontSize=12;align=center;" vertex="1" parent="199">
                    <mxGeometry x="45" y="190" width="10" height="630" as="geometry"/>
                </mxCell>
                <mxCell id="201" value="" style="endArrow=classic;html=1;rounded=0;entryX=0.133;entryY=0.084;entryDx=0;entryDy=0;entryPerimeter=0;" edge="1" parent="199">
                    <mxGeometry width="50" height="50" relative="1" as="geometry">
                        <mxPoint x="-92.00647058823515" y="280.00000000000045" as="sourcePoint"/>
                        <mxPoint x="44.99999999999994" y="280.00000000000045" as="targetPoint"/>
                    </mxGeometry>
                </mxCell>
                <mxCell id="202" value="" style="endArrow=classic;html=1;rounded=0;dashed=1;entryX=0.994;entryY=0.317;entryDx=0;entryDy=0;entryPerimeter=0;" edge="1" parent="199">
                    <mxGeometry width="50" height="50" relative="1" as="geometry">
                        <mxPoint x="539.5" y="410.00000000000045" as="sourcePoint"/>
                        <mxPoint x="-422.59000000000015" y="410.00000000000045" as="targetPoint"/>
                    </mxGeometry>
                </mxCell>
                <mxCell id="203" value="&lt;div&gt;Controller&lt;/div&gt;&lt;div&gt;Write off reasons&lt;br&gt;&lt;/div&gt;" style="shape=umlLifeline;perimeter=lifelinePerimeter;whiteSpace=wrap;html=1;container=1;collapsible=0;recursiveResize=0;outlineConnect=0;rounded=1;shadow=0;comic=0;labelBackgroundColor=none;strokeWidth=1;fontFamily=Verdana;fontSize=12;align=center;" vertex="1" parent="1">
                    <mxGeometry x="467" y="3300" width="223" height="820" as="geometry"/>
                </mxCell>
                <mxCell id="204" value="" style="html=1;points=[];perimeter=orthogonalPerimeter;rounded=0;shadow=0;comic=0;labelBackgroundColor=none;strokeWidth=1;fontFamily=Verdana;fontSize=12;align=center;" vertex="1" parent="203">
                    <mxGeometry x="109.5" y="264" width="10" height="556" as="geometry"/>
                </mxCell>
                <mxCell id="205" value="Write off reasons Record Deleted" style="text;html=1;align=center;verticalAlign=middle;whiteSpace=wrap;rounded=0;" vertex="1" parent="203">
                    <mxGeometry x="131" y="306" width="129" height="20" as="geometry"/>
                </mxCell>
                <mxCell id="206" value="" style="endArrow=classic;html=1;rounded=0;" edge="1" parent="203" source="227">
                    <mxGeometry width="50" height="50" relative="1" as="geometry">
                        <mxPoint x="109.5" y="190" as="sourcePoint"/>
                        <mxPoint x="-210.5" y="190" as="targetPoint"/>
                    </mxGeometry>
                </mxCell>
                <mxCell id="207" value="Retrieves the record Id of selected record" style="text;html=1;align=center;verticalAlign=middle;whiteSpace=wrap;rounded=0;" vertex="1" parent="203">
                    <mxGeometry x="-25" y="160" width="225" height="30" as="geometry"/>
                </mxCell>
                <mxCell id="208" value="Request Delete Write off reasons record" style="text;html=1;align=center;verticalAlign=middle;whiteSpace=wrap;rounded=0;" vertex="1" parent="203">
                    <mxGeometry x="-57" y="264" width="157" height="20" as="geometry"/>
                </mxCell>
                <mxCell id="209" value="Delete Write off reasons" style="text;html=1;align=center;verticalAlign=middle;whiteSpace=wrap;rounded=0;" vertex="1" parent="203">
                    <mxGeometry x="140" y="275" width="129" height="20" as="geometry"/>
                </mxCell>
                <mxCell id="210" value="" style="endArrow=classic;html=1;rounded=0;entryX=1.15;entryY=0.096;entryDx=0;entryDy=0;entryPerimeter=0;dashed=1;" edge="1" parent="203">
                    <mxGeometry width="50" height="50" relative="1" as="geometry">
                        <mxPoint x="287.99999999999955" y="330.1399999999999" as="sourcePoint"/>
                        <mxPoint x="119.5" y="329.99599999999964" as="targetPoint"/>
                        <Array as="points">
                            <mxPoint x="158.5" y="330.1399999999999"/>
                        </Array>
                    </mxGeometry>
                </mxCell>
                <mxCell id="211" value="" style="endArrow=classic;html=1;rounded=0;entryX=1.15;entryY=0.096;entryDx=0;entryDy=0;entryPerimeter=0;dashed=1;" edge="1" parent="203">
                    <mxGeometry width="50" height="50" relative="1" as="geometry">
                        <mxPoint x="103" y="360" as="sourcePoint"/>
                        <mxPoint x="-62.75" y="359.99599999999964" as="targetPoint"/>
                        <Array as="points">
                            <mxPoint x="-23.75" y="360.1399999999999"/>
                        </Array>
                    </mxGeometry>
                </mxCell>
                <mxCell id="212" value="&amp;nbsp;Deleted Write off reasons" style="text;html=1;align=center;verticalAlign=middle;whiteSpace=wrap;rounded=0;" vertex="1" parent="203">
                    <mxGeometry x="-42" y="335" width="129" height="20" as="geometry"/>
                </mxCell>
                <mxCell id="213" value="Entity&lt;br&gt;Write off reasons" style="shape=umlLifeline;perimeter=lifelinePerimeter;whiteSpace=wrap;html=1;container=1;collapsible=0;recursiveResize=0;outlineConnect=0;rounded=1;shadow=0;comic=0;labelBackgroundColor=none;strokeWidth=1;fontFamily=Verdana;fontSize=12;align=center;" vertex="1" parent="1">
                    <mxGeometry x="707" y="3300" width="100" height="820" as="geometry"/>
                </mxCell>
                <mxCell id="214" value="" style="html=1;points=[];perimeter=orthogonalPerimeter;rounded=0;shadow=0;comic=0;labelBackgroundColor=none;strokeWidth=1;fontFamily=Verdana;fontSize=12;align=center;" vertex="1" parent="213">
                    <mxGeometry x="45" y="270" width="10" height="550" as="geometry"/>
                </mxCell>
                <mxCell id="215" value="" style="endArrow=classic;html=1;rounded=0;exitX=0.5;exitY=0.13;exitDx=0;exitDy=0;exitPerimeter=0;" edge="1" parent="213">
                    <mxGeometry width="50" height="50" relative="1" as="geometry">
                        <mxPoint x="-120.5" y="300" as="sourcePoint"/>
                        <mxPoint x="53" y="300" as="targetPoint"/>
                    </mxGeometry>
                </mxCell>
                <mxCell id="216" style="rounded=0;orthogonalLoop=1;jettySize=auto;html=1;exitX=0.5;exitY=1;exitDx=0;exitDy=0;dashed=1;shape=link;strokeWidth=1;strokeColor=none;" edge="1" parent="1" source="217">
                    <mxGeometry relative="1" as="geometry">
                        <mxPoint x="-103" y="3880" as="targetPoint"/>
                    </mxGeometry>
                </mxCell>
                <mxCell id="217" value="" style="shape=actor;whiteSpace=wrap;html=1;" vertex="1" parent="1">
                    <mxGeometry x="-103" y="3300" width="40" height="60" as="geometry"/>
                </mxCell>
                <mxCell id="218" value="&lt;div&gt;&amp;lt;&amp;lt;PBA&amp;gt;&amp;gt;&lt;/div&gt;&lt;div&gt;Admin&lt;/div&gt;" style="text;html=1;align=center;verticalAlign=middle;resizable=0;points=[];autosize=1;strokeColor=none;fillColor=none;" vertex="1" parent="1">
                    <mxGeometry x="-188" y="3325" width="70" height="40" as="geometry"/>
                </mxCell>
                <mxCell id="219" value="" style="endArrow=none;dashed=1;html=1;dashPattern=1 3;strokeWidth=2;rounded=0;entryX=0.5;entryY=1;entryDx=0;entryDy=0;" edge="1" parent="1" source="220" target="217">
                    <mxGeometry width="50" height="50" relative="1" as="geometry">
                        <mxPoint x="-83" y="3880" as="sourcePoint"/>
                        <mxPoint x="337" y="3490" as="targetPoint"/>
                    </mxGeometry>
                </mxCell>
                <mxCell id="220" value="" style="html=1;points=[];perimeter=orthogonalPerimeter;rounded=0;shadow=0;comic=0;labelBackgroundColor=none;strokeWidth=1;fontFamily=Verdana;fontSize=12;align=center;" vertex="1" parent="1">
                    <mxGeometry x="-90.5" y="3450" width="15" height="670" as="geometry"/>
                </mxCell>
                <mxCell id="221" value="ALT" style="shape=umlFrame;whiteSpace=wrap;html=1;pointerEvents=0;" vertex="1" parent="1">
                    <mxGeometry x="-260" y="3730" width="1180" height="110" as="geometry"/>
                </mxCell>
                <mxCell id="222" value="" style="endArrow=classic;html=1;rounded=0;dashed=1;" edge="1" parent="1">
                    <mxGeometry width="50" height="50" relative="1" as="geometry">
                        <mxPoint x="248.5" y="3510" as="sourcePoint"/>
                        <mxPoint x="-71.5" y="3510" as="targetPoint"/>
                    </mxGeometry>
                </mxCell>
                <mxCell id="223" value="Display Delete Write off reasons Notification Details" style="text;html=1;align=center;verticalAlign=middle;whiteSpace=wrap;rounded=0;" vertex="1" parent="1">
                    <mxGeometry x="-60" y="3490" width="310" height="20" as="geometry"/>
                </mxCell>
                <mxCell id="224" value="Admin does not &lt;br&gt;delete the&amp;nbsp;&lt;div&gt;Write off reasons&lt;/div&gt;" style="text;html=1;align=center;verticalAlign=middle;resizable=0;points=[];autosize=1;strokeColor=none;fillColor=none;" vertex="1" parent="1">
                    <mxGeometry x="-208" y="3730" width="110" height="60" as="geometry"/>
                </mxCell>
                <mxCell id="225" value="Clicks &quot;Yes&quot; button" style="text;html=1;align=center;verticalAlign=middle;whiteSpace=wrap;rounded=0;" vertex="1" parent="1">
                    <mxGeometry x="7.5" y="3520" width="150" height="17" as="geometry"/>
                </mxCell>
                <mxCell id="226" value="" style="endArrow=classic;html=1;rounded=0;exitX=0.968;exitY=0.159;exitDx=0;exitDy=0;exitPerimeter=0;" edge="1" parent="1" source="200">
                    <mxGeometry width="50" height="50" relative="1" as="geometry">
                        <mxPoint x="407" y="3590" as="sourcePoint"/>
                        <mxPoint x="580" y="3590" as="targetPoint"/>
                    </mxGeometry>
                </mxCell>
                <mxCell id="227" value="&lt;div style=&quot;font-size: 10px;&quot;&gt;&lt;div style=&quot;font-size: 12px;&quot;&gt;Interface&lt;/div&gt;&lt;div style=&quot;font-size: 12px;&quot;&gt;View Write off reasons Screen&lt;/div&gt;&lt;/div&gt;" style="shape=umlLifeline;perimeter=lifelinePerimeter;whiteSpace=wrap;html=1;container=1;collapsible=0;recursiveResize=0;outlineConnect=0;rounded=1;shadow=0;comic=0;labelBackgroundColor=none;strokeWidth=1;fontFamily=Verdana;fontSize=12;align=center;" vertex="1" parent="1">
                    <mxGeometry x="837" y="3300" width="100" height="820" as="geometry"/>
                </mxCell>
                <mxCell id="228" value="" style="html=1;points=[];perimeter=orthogonalPerimeter;rounded=0;shadow=0;comic=0;labelBackgroundColor=none;strokeWidth=1;fontFamily=Verdana;fontSize=12;align=center;" vertex="1" parent="227">
                    <mxGeometry x="41" y="160" width="10" height="660" as="geometry"/>
                </mxCell>
                <mxCell id="229" value="" style="endArrow=classic;html=1;rounded=0;entryX=0.284;entryY=0.443;entryDx=0;entryDy=0;entryPerimeter=0;" edge="1" parent="1">
                    <mxGeometry width="50" height="50" relative="1" as="geometry">
                        <mxPoint x="-75.5" y="3763.16" as="sourcePoint"/>
                        <mxPoint x="250.84000000000015" y="3763.16" as="targetPoint"/>
                    </mxGeometry>
                </mxCell>
                <mxCell id="230" value="&lt;font color=&quot;#ff0000&quot;&gt;ALT: Clicks &quot;No&quot; button&lt;/font&gt;" style="text;html=1;align=center;verticalAlign=middle;whiteSpace=wrap;rounded=0;" vertex="1" parent="1">
                    <mxGeometry x="7" y="3744.33" width="150" height="17" as="geometry"/>
                </mxCell>
                <mxCell id="231" value="" style="endArrow=classic;html=1;rounded=0;" edge="1" parent="1">
                    <mxGeometry width="50" height="50" relative="1" as="geometry">
                        <mxPoint x="255.06043478260852" y="3790" as="sourcePoint"/>
                        <mxPoint x="884.93" y="3790" as="targetPoint"/>
                    </mxGeometry>
                </mxCell>
                <mxCell id="232" value="&lt;font color=&quot;#ff0000&quot;&gt;ALT: Cancelled Delete Request&amp;nbsp;&lt;/font&gt;" style="text;html=1;align=center;verticalAlign=middle;whiteSpace=wrap;rounded=0;" vertex="1" parent="1">
                    <mxGeometry x="425" y="3766.5" width="150" height="17" as="geometry"/>
                </mxCell>
                <mxCell id="233" value="ALT" style="shape=umlFrame;whiteSpace=wrap;html=1;pointerEvents=0;" vertex="1" parent="1">
                    <mxGeometry x="-260" y="3900" width="1180" height="200" as="geometry"/>
                </mxCell>
                <mxCell id="234" value="System is unable &lt;br&gt;to delete Write&lt;div&gt;&amp;nbsp;off reasons&lt;/div&gt;" style="text;html=1;align=center;verticalAlign=middle;resizable=0;points=[];autosize=1;strokeColor=none;fillColor=none;" vertex="1" parent="1">
                    <mxGeometry x="-200" y="3900" width="110" height="60" as="geometry"/>
                </mxCell>
                <mxCell id="235" value="" style="endArrow=classic;html=1;rounded=0;dashed=1;entryX=0.85;entryY=0.764;entryDx=0;entryDy=0;entryPerimeter=0;" edge="1" parent="1">
                    <mxGeometry width="50" height="50" relative="1" as="geometry">
                        <mxPoint x="752.5" y="3940" as="sourcePoint"/>
                        <mxPoint x="583.5" y="3938.1040000000003" as="targetPoint"/>
                    </mxGeometry>
                </mxCell>
                <mxCell id="236" value="&lt;font color=&quot;#ff0000&quot;&gt;ALT: Unable to delete record&lt;/font&gt;" style="text;html=1;align=center;verticalAlign=middle;whiteSpace=wrap;rounded=0;" vertex="1" parent="1">
                    <mxGeometry x="625.5" y="3910" width="109" height="20" as="geometry"/>
                </mxCell>
                <mxCell id="237" value="" style="endArrow=classic;html=1;rounded=0;exitX=0.247;exitY=0.878;exitDx=0;exitDy=0;exitPerimeter=0;entryX=1.1;entryY=0.815;entryDx=0;entryDy=0;entryPerimeter=0;dashed=1;" edge="1" parent="1" source="228">
                    <mxGeometry width="50" height="50" relative="1" as="geometry">
                        <mxPoint x="579" y="4041.9640000000004" as="sourcePoint"/>
                        <mxPoint x="-73" y="4040.0000000000005" as="targetPoint"/>
                    </mxGeometry>
                </mxCell>
                <mxCell id="238" value="&lt;font color=&quot;#ff0000&quot;&gt;ALT: Displays error message&lt;/font&gt;" style="text;html=1;align=center;verticalAlign=middle;whiteSpace=wrap;rounded=0;" vertex="1" parent="1">
                    <mxGeometry x="-27" y="4050" width="184.5" height="20" as="geometry"/>
                </mxCell>
                <mxCell id="239" value="Retrieve matching Write off reasons record" style="text;html=1;align=center;verticalAlign=middle;whiteSpace=wrap;rounded=0;" vertex="1" parent="1">
                    <mxGeometry x="270" y="3548" width="109" height="20" as="geometry"/>
                </mxCell>
                <mxCell id="240" value="" style="endArrow=classic;html=1;rounded=0;" edge="1" parent="1" target="227">
                    <mxGeometry width="50" height="50" relative="1" as="geometry">
                        <mxPoint x="-75.5" y="3460" as="sourcePoint"/>
                        <mxPoint x="247" y="3460" as="targetPoint"/>
                    </mxGeometry>
                </mxCell>
                <mxCell id="241" value="Clicks &quot;Delete&quot; button" style="text;html=1;align=center;verticalAlign=middle;whiteSpace=wrap;rounded=0;" vertex="1" parent="1">
                    <mxGeometry x="11.5" y="3440" width="150" height="20" as="geometry"/>
                </mxCell>
                <mxCell id="242" value="Display Delete Successful Notification" style="text;html=1;align=center;verticalAlign=middle;whiteSpace=wrap;rounded=0;" vertex="1" parent="1">
                    <mxGeometry x="-30" y="3680" width="240" height="20" as="geometry"/>
                </mxCell>
                <mxCell id="243" value="" style="endArrow=classic;html=1;rounded=0;dashed=1;" edge="1" parent="1" target="227">
                    <mxGeometry width="50" height="50" relative="1" as="geometry">
                        <mxPoint x="400" y="3689" as="sourcePoint"/>
                        <mxPoint x="511" y="3689.41" as="targetPoint"/>
                    </mxGeometry>
                </mxCell>
                <mxCell id="244" value="Display update &lt;br&gt;Write off reasons table" style="edgeLabel;html=1;align=center;verticalAlign=middle;resizable=0;points=[];" vertex="1" connectable="0" parent="1">
                    <mxGeometry x="661.5033333333334" y="3670" as="geometry"/>
                </mxCell>
                <mxCell id="245" value="" style="endArrow=classic;html=1;rounded=0;dashed=1;entryX=0.994;entryY=0.317;entryDx=0;entryDy=0;entryPerimeter=0;" edge="1" parent="1">
                    <mxGeometry width="50" height="50" relative="1" as="geometry">
                        <mxPoint x="883" y="3820" as="sourcePoint"/>
                        <mxPoint x="-80" y="3820" as="targetPoint"/>
                    </mxGeometry>
                </mxCell>
                <mxCell id="246" value="ALT: Displays View Write off reasons Screen&amp;nbsp;" style="text;html=1;align=center;verticalAlign=middle;whiteSpace=wrap;rounded=0;labelBorderColor=none;fontColor=#FF0000;" vertex="1" parent="1">
                    <mxGeometry x="-52.25" y="3796.5" width="227.5" height="17" as="geometry"/>
                </mxCell>
                <mxCell id="247" value="" style="endArrow=classic;html=1;rounded=0;dashed=1;entryX=0.85;entryY=0.764;entryDx=0;entryDy=0;entryPerimeter=0;" edge="1" parent="1" source="204">
                    <mxGeometry width="50" height="50" relative="1" as="geometry">
                        <mxPoint x="567" y="3961.9" as="sourcePoint"/>
                        <mxPoint x="398" y="3960.0040000000004" as="targetPoint"/>
                    </mxGeometry>
                </mxCell>
                <mxCell id="248" value="" style="endArrow=classic;html=1;rounded=0;dashed=1;entryX=0.85;entryY=0.764;entryDx=0;entryDy=0;entryPerimeter=0;" edge="1" parent="1" source="200">
                    <mxGeometry width="50" height="50" relative="1" as="geometry">
                        <mxPoint x="1059" y="4000" as="sourcePoint"/>
                        <mxPoint x="880" y="4000.0040000000004" as="targetPoint"/>
                    </mxGeometry>
                </mxCell>
                <mxCell id="249" value="&lt;font color=&quot;#ff0000&quot;&gt;ALT: Unsuccess delete Write off reasons&lt;/font&gt;" style="text;html=1;align=center;verticalAlign=middle;whiteSpace=wrap;rounded=0;" vertex="1" parent="1">
                    <mxGeometry x="400" y="3930" width="170" height="20" as="geometry"/>
                </mxCell>
                <mxCell id="250" value="&lt;font color=&quot;#ff0000&quot;&gt;ALT: Unsuccessful Delete&lt;/font&gt;" style="text;html=1;align=center;verticalAlign=middle;whiteSpace=wrap;rounded=0;" vertex="1" parent="1">
                    <mxGeometry x="590" y="3980" width="170" height="20" as="geometry"/>
                </mxCell>
                <mxCell id="251" value="" style="endArrow=classic;html=1;rounded=0;exitX=0.126;exitY=0.725;exitDx=0;exitDy=0;exitPerimeter=0;entryX=1.1;entryY=0.815;entryDx=0;entryDy=0;entryPerimeter=0;dashed=1;" edge="1" parent="1">
                    <mxGeometry width="50" height="50" relative="1" as="geometry">
                        <mxPoint x="882" y="4080" as="sourcePoint"/>
                        <mxPoint x="-70" y="4080.0000000000005" as="targetPoint"/>
                    </mxGeometry>
                </mxCell>
                <mxCell id="252" value="ALT: Displays View Write off reasons Screen&amp;nbsp;" style="text;html=1;align=center;verticalAlign=middle;whiteSpace=wrap;rounded=0;labelBorderColor=none;fontColor=#FF0000;" vertex="1" parent="1">
                    <mxGeometry x="-31.25" y="4016" width="227.5" height="17" as="geometry"/>
                </mxCell>
                <mxCell id="253" value="" style="endArrow=classic;html=1;rounded=0;exitX=1.123;exitY=0.063;exitDx=0;exitDy=0;exitPerimeter=0;entryX=-0.108;entryY=0.06;entryDx=0;entryDy=0;entryPerimeter=0;" edge="1" parent="1" source="11" target="14">
                    <mxGeometry width="50" height="50" relative="1" as="geometry">
                        <mxPoint x="810" y="570" as="sourcePoint"/>
                        <mxPoint x="900" y="570" as="targetPoint"/>
                    </mxGeometry>
                </mxCell>
                <mxCell id="254" value="Entity&lt;br&gt;Audit_Trail" style="shape=umlLifeline;perimeter=lifelinePerimeter;whiteSpace=wrap;html=1;container=1;collapsible=0;recursiveResize=0;outlineConnect=0;rounded=1;shadow=0;comic=0;labelBackgroundColor=none;strokeWidth=1;fontFamily=Verdana;fontSize=12;align=center;" vertex="1" parent="1">
                    <mxGeometry x="1045.46" y="80" width="100" height="670" as="geometry"/>
                </mxCell>
                <mxCell id="255" value="" style="rounded=0;whiteSpace=wrap;html=1;" vertex="1" parent="254">
                    <mxGeometry x="40" y="525" width="20" height="40" as="geometry"/>
                </mxCell>
                <mxCell id="256" value="" style="endArrow=classic;html=1;rounded=0;exitX=0.878;exitY=0.791;exitDx=0;exitDy=0;exitPerimeter=0;" edge="1" parent="1" source="13">
                    <mxGeometry width="50" height="50" relative="1" as="geometry">
                        <mxPoint x="640" y="623" as="sourcePoint"/>
                        <mxPoint x="1094.96" y="623" as="targetPoint"/>
                    </mxGeometry>
                </mxCell>
                <mxCell id="257" value="Transaction added&lt;div&gt;&amp;nbsp;to Audit_Trail&lt;/div&gt;" style="edgeLabel;html=1;align=center;verticalAlign=middle;resizable=0;points=[];" connectable="0" vertex="1" parent="256">
                    <mxGeometry x="0.7697" y="1" relative="1" as="geometry">
                        <mxPoint x="-13" y="-22" as="offset"/>
                    </mxGeometry>
                </mxCell>
                <mxCell id="258" value="Entity&lt;br&gt;Audit_Trail" style="shape=umlLifeline;perimeter=lifelinePerimeter;whiteSpace=wrap;html=1;container=1;collapsible=0;recursiveResize=0;outlineConnect=0;rounded=1;shadow=0;comic=0;labelBackgroundColor=none;strokeWidth=1;fontFamily=Verdana;fontSize=12;align=center;" vertex="1" parent="1">
                    <mxGeometry x="1068.23" y="960" width="100" height="670" as="geometry"/>
                </mxCell>
                <mxCell id="259" value="" style="rounded=0;whiteSpace=wrap;html=1;" vertex="1" parent="258">
                    <mxGeometry x="40" y="421" width="20" height="40" as="geometry"/>
                </mxCell>
                <mxCell id="260" value="" style="endArrow=classic;html=1;rounded=0;exitX=0.85;exitY=0.498;exitDx=0;exitDy=0;exitPerimeter=0;" edge="1" parent="1" source="48">
                    <mxGeometry width="50" height="50" relative="1" as="geometry">
                        <mxPoint x="670" y="1399" as="sourcePoint"/>
                        <mxPoint x="1117.73" y="1399" as="targetPoint"/>
                    </mxGeometry>
                </mxCell>
                <mxCell id="261" value="Transaction added&lt;div&gt;&amp;nbsp;to Audit_Trail&lt;/div&gt;" style="edgeLabel;html=1;align=center;verticalAlign=middle;resizable=0;points=[];" connectable="0" vertex="1" parent="260">
                    <mxGeometry x="0.7697" y="1" relative="1" as="geometry">
                        <mxPoint x="-21" y="-22" as="offset"/>
                    </mxGeometry>
                </mxCell>
                <mxCell id="262" value="Entity&lt;br&gt;Audit_Trail" style="shape=umlLifeline;perimeter=lifelinePerimeter;whiteSpace=wrap;html=1;container=1;collapsible=0;recursiveResize=0;outlineConnect=0;rounded=1;shadow=0;comic=0;labelBackgroundColor=none;strokeWidth=1;fontFamily=Verdana;fontSize=12;align=center;" vertex="1" parent="1">
                    <mxGeometry x="951.5" y="1990" width="100" height="1130" as="geometry"/>
                </mxCell>
                <mxCell id="263" value="" style="rounded=0;whiteSpace=wrap;html=1;" vertex="1" parent="262">
                    <mxGeometry x="40" y="451" width="20" height="40" as="geometry"/>
                </mxCell>
                <mxCell id="264" value="" style="endArrow=classic;html=1;rounded=0;" edge="1" parent="1">
                    <mxGeometry width="50" height="50" relative="1" as="geometry">
                        <mxPoint x="311.5" y="2461" as="sourcePoint"/>
                        <mxPoint x="1001" y="2461" as="targetPoint"/>
                    </mxGeometry>
                </mxCell>
                <mxCell id="265" value="Transaction added&lt;div&gt;&amp;nbsp;to Audit_Trail&lt;/div&gt;" style="edgeLabel;html=1;align=center;verticalAlign=middle;resizable=0;points=[];" connectable="0" vertex="1" parent="264">
                    <mxGeometry x="0.7933" relative="1" as="geometry">
                        <mxPoint x="-1" y="-20" as="offset"/>
                    </mxGeometry>
                </mxCell>
                <mxCell id="266" value="Entity&lt;br&gt;Audit_Trail" style="shape=umlLifeline;perimeter=lifelinePerimeter;whiteSpace=wrap;html=1;container=1;collapsible=0;recursiveResize=0;outlineConnect=0;rounded=1;shadow=0;comic=0;labelBackgroundColor=none;strokeWidth=1;fontFamily=Verdana;fontSize=12;align=center;" vertex="1" parent="1">
                    <mxGeometry x="968.23" y="3300" width="100" height="820" as="geometry"/>
                </mxCell>
                <mxCell id="267" value="" style="rounded=0;whiteSpace=wrap;html=1;" vertex="1" parent="266">
                    <mxGeometry x="40" y="382" width="20" height="40" as="geometry"/>
                </mxCell>
                <mxCell id="268" value="" style="endArrow=classic;html=1;rounded=0;" edge="1" parent="1">
                    <mxGeometry width="50" height="50" relative="1" as="geometry">
                        <mxPoint x="400.23" y="3699" as="sourcePoint"/>
                        <mxPoint x="1017.73" y="3699" as="targetPoint"/>
                    </mxGeometry>
                </mxCell>
                <mxCell id="269" value="Transaction added&lt;div&gt;&amp;nbsp;to Audit_Trail&lt;/div&gt;" style="edgeLabel;html=1;align=center;verticalAlign=middle;resizable=0;points=[];" connectable="0" vertex="1" parent="268">
                    <mxGeometry x="0.8485" y="-1" relative="1" as="geometry">
                        <mxPoint x="-23" y="-20" as="offset"/>
                    </mxGeometry>
                </mxCell>
            </root>
        </mxGraphModel>
    </diagram>
</mxfile>